<?xml version="1.0" encoding="utf-8"?>
<!-- Generator: Adobe Illustrator 26.5.3, SVG Export Plug-In . SVG Version: 6.00 Build 0)  -->
<svg version="1.1" id="Layer_1" xmlns="http://www.w3.org/2000/svg" xmlns:xlink="http://www.w3.org/1999/xlink" x="0px" y="0px"
	 viewBox="0 0 170.74 52.42" style="enable-background:new 0 0 170.74 52.42;" xml:space="preserve">
<style type="text/css">
	.st0{fill:#FFFFFF;}
	.st1{fill:#EDEDED;}
	.st2{fill:#41C6E0;}
	.st3{fill:#FFEBF3;}
	.st4{fill:none;stroke:#EDEDED;stroke-width:0.5;stroke-miterlimit:10;}
	.st5{fill:url(#SVGID_1_);}
	.st6{fill:#FFC2D9;}
	.st7{fill:#FF70AC;}
	.st8{fill:#E0518D;}
	.st9{fill:#FFD9E7;}
	.st10{opacity:0.68;fill:#DEDEDE;}
	.st11{fill:#FFB3D3;}
</style>
<g>
	<path class="st0" d="M167.82,32.3c-3.02,6.41-36.72,13.56-52.93,13.53c-18.58,0.78-41.87,0.57-66.89,0H19.46
		c-4.27-0.14-8.06-0.36-10.91-0.77c-4.37-1.02-7.67-2.3-8.4-4.22C0.04,40.56-0.01,40.26,0,39.95c0.37-1.99,3.16-3.24,7.08-4.15
		c2.14-5.6,12.01-7.8,29.55-6.63l124.41,0.38c2.74,0.1,5.24,0.43,6.96,1.47C168.09,31.44,168.02,31.87,167.82,32.3z"/>
	<path class="st1" d="M114.89,45.81c-18.58,0.78-41.87,0.58-66.89,0H19.46c-4.27-0.13-8.06-0.36-10.91-0.77
		c-5.02-1.17-8.62-2.68-8.55-5.1c0.03-0.17,2.7,3.59,8.55,3.73c2.85,0.41,6.64,0.63,10.91,0.77H48c25.02,0.57,48.31,0.78,66.89,0
		c16.21,0.03,49.91-7.12,52.93-13.53c0.06,0.02,0.12,0.05,0.18,0.09C169.4,37.7,132.19,45.84,114.89,45.81z"/>
	<path class="st2" d="M106.49,36.33L106.49,36.33c-0.3,0-0.55-0.25-0.55-0.55v-0.7c0-0.3,0.25-0.55,0.55-0.55l0,0
		c0.3,0,0.55,0.25,0.55,0.55v0.7C107.04,36.09,106.79,36.33,106.49,36.33z"/>
	<path class="st0" d="M128.74,29.45l8.09-2c1.47-0.36,2.79-1.16,3.8-2.29L163.08,0h7.66l-9.7,29.55L128.74,29.45z"/>
	<path class="st3" d="M66.15,29.26c1.76-1.41,3.4-2.51,4.72-2.88c-0.3,1.06-0.72,2.06-1.49,2.88H66.15z"/>
	<path class="st3" d="M48,45.83c2.5-1.28,4.13-2.75,5.13-3.87c0.44-0.49,0.99-0.85,1.64-0.99c4.05-0.88,15.7-1.11,32.04-0.95
		l17.3-2.42c6.69-5.94,10.83-11.34,11.87-9.78l-5.11,10.79c-2.47,1.49-5.8,2.48-9.38,3.32l-10.72,0.45l0.13,1.28
		C74.35,44.93,58.85,45.94,48,45.83z"/>
	<path class="st4" d="M4.68,36.46c0.13,2.04,0.09,4.67,0,7.52"/>
	<path class="st3" d="M22.06,31.47h3.88c0.23,0,0.42,0.19,0.42,0.42v8.86c0,0.23-0.19,0.42-0.42,0.42h-3.88
		c-0.23,0-0.42-0.19-0.42-0.42v-8.86C21.64,31.66,21.82,31.47,22.06,31.47z"/>
	<path class="st2" d="M8.85,33.43h1.06l-1.19,2.13l-1.32,0C7.76,34.87,8.26,34.16,8.85,33.43z"/>
	<polygon class="st2" points="10.34,33.45 12.41,33.45 11.26,35.55 9.21,35.55 	"/>
	<polygon class="st2" points="12.89,33.45 14.29,33.45 13.55,35.36 11.89,35.55 	"/>
	<polygon class="st2" points="14.85,33.56 15.43,35.07 14.15,35.33 	"/>
	<polygon class="st3" points="170.43,0.96 165.72,0.96 165.13,1.91 166.91,2.77 162.49,14.78 159.76,14.78 159.76,15.28 
		162.06,15.28 157.44,27.82 161.61,27.82 	"/>
	<path class="st3" d="M127.36,31.86h3.26c0.37,0,0.68,0.3,0.68,0.68v7.96c0,0.37-0.3,0.68-0.68,0.68h-3.42
		c-0.38,0-0.68-0.31-0.68-0.69l0.16-7.96C126.69,32.15,126.99,31.86,127.36,31.86z"/>
	<path class="st3" d="M80.43,33.66h2.28c0.09,0,0.16,0.07,0.16,0.16v5.01c0,0.09-0.07,0.16-0.16,0.16h-2.28
		c-0.09,0-0.16-0.07-0.16-0.16v-5.01C80.27,33.73,80.34,33.66,80.43,33.66z"/>
	<path class="st2" d="M28.98,36.33L28.98,36.33c-0.3,0-0.55-0.25-0.55-0.55v-0.7c0-0.3,0.25-0.55,0.55-0.55h0
		c0.3,0,0.55,0.25,0.55,0.55v0.7C29.53,36.09,29.29,36.33,28.98,36.33z"/>
	<path class="st2" d="M31.41,36.33L31.41,36.33c-0.3,0-0.55-0.25-0.55-0.55v-0.7c0-0.3,0.25-0.55,0.55-0.55h0
		c0.3,0,0.55,0.25,0.55,0.55v0.7C31.97,36.09,31.72,36.33,31.41,36.33z"/>
	<path class="st2" d="M33.85,36.33L33.85,36.33c-0.3,0-0.55-0.25-0.55-0.55v-0.7c0-0.3,0.25-0.55,0.55-0.55l0,0
		c0.3,0,0.55,0.25,0.55,0.55v0.7C34.4,36.09,34.15,36.33,33.85,36.33z"/>
	<path class="st2" d="M36.46,36.33L36.46,36.33c-0.3,0-0.55-0.25-0.55-0.55v-0.7c0-0.3,0.25-0.55,0.55-0.55l0,0
		c0.3,0,0.55,0.25,0.55,0.55v0.7C37.01,36.09,36.76,36.33,36.46,36.33z"/>
	<path class="st2" d="M38.88,36.33L38.88,36.33c-0.3,0-0.55-0.25-0.55-0.55v-0.7c0-0.3,0.25-0.55,0.55-0.55l0,0
		c0.3,0,0.55,0.25,0.55,0.55v0.7C39.43,36.09,39.18,36.33,38.88,36.33z"/>
	<path class="st2" d="M41.35,36.33L41.35,36.33c-0.3,0-0.55-0.25-0.55-0.55v-0.7c0-0.3,0.25-0.55,0.55-0.55l0,0
		c0.3,0,0.55,0.25,0.55,0.55v0.7C41.9,36.09,41.65,36.33,41.35,36.33z"/>
	<path class="st2" d="M43.9,36.33L43.9,36.33c-0.3,0-0.55-0.25-0.55-0.55v-0.7c0-0.3,0.25-0.55,0.55-0.55h0
		c0.3,0,0.55,0.25,0.55,0.55v0.7C44.45,36.09,44.2,36.33,43.9,36.33z"/>
	<path class="st2" d="M46.22,36.33L46.22,36.33c-0.3,0-0.55-0.25-0.55-0.55v-0.7c0-0.3,0.25-0.55,0.55-0.55l0,0
		c0.3,0,0.55,0.25,0.55,0.55v0.7C46.77,36.09,46.53,36.33,46.22,36.33z"/>
	<path class="st2" d="M48.85,36.33L48.85,36.33c-0.3,0-0.55-0.25-0.55-0.55v-0.7c0-0.3,0.25-0.55,0.55-0.55l0,0
		c0.3,0,0.55,0.25,0.55,0.55v0.7C49.4,36.09,49.16,36.33,48.85,36.33z"/>
	<path class="st2" d="M51.41,36.33L51.41,36.33c-0.3,0-0.55-0.25-0.55-0.55v-0.7c0-0.3,0.25-0.55,0.55-0.55h0
		c0.3,0,0.55,0.25,0.55,0.55v0.7C51.96,36.09,51.72,36.33,51.41,36.33z"/>
	<path class="st2" d="M53.84,36.33L53.84,36.33c-0.3,0-0.55-0.25-0.55-0.55v-0.7c0-0.3,0.25-0.55,0.55-0.55h0
		c0.3,0,0.55,0.25,0.55,0.55v0.7C54.39,36.09,54.15,36.33,53.84,36.33z"/>
	<path class="st2" d="M79.12,36.33L79.12,36.33c-0.3,0-0.55-0.25-0.55-0.55v-0.7c0-0.3,0.25-0.55,0.55-0.55l0,0
		c0.3,0,0.55,0.25,0.55,0.55v0.7C79.67,36.09,79.43,36.33,79.12,36.33z"/>
	<path class="st2" d="M81.55,36.33L81.55,36.33c-0.3,0-0.55-0.25-0.55-0.55v-0.7c0-0.3,0.25-0.55,0.55-0.55l0,0
		c0.3,0,0.55,0.25,0.55,0.55v0.7C82.1,36.09,81.86,36.33,81.55,36.33z"/>
	<path class="st2" d="M83.98,36.33L83.98,36.33c-0.3,0-0.55-0.25-0.55-0.55v-0.7c0-0.3,0.25-0.55,0.55-0.55l0,0
		c0.3,0,0.55,0.25,0.55,0.55v0.7C84.53,36.09,84.29,36.33,83.98,36.33z"/>
	<path class="st2" d="M86.6,36.33L86.6,36.33c-0.3,0-0.55-0.25-0.55-0.55v-0.7c0-0.3,0.25-0.55,0.55-0.55l0,0
		c0.3,0,0.55,0.25,0.55,0.55v0.7C87.15,36.09,86.9,36.33,86.6,36.33z"/>
	<path class="st2" d="M89.02,36.33L89.02,36.33c-0.3,0-0.55-0.25-0.55-0.55v-0.7c0-0.3,0.25-0.55,0.55-0.55l0,0
		c0.3,0,0.55,0.25,0.55,0.55v0.7C89.57,36.09,89.32,36.33,89.02,36.33z"/>
	<path class="st2" d="M91.48,36.33L91.48,36.33c-0.3,0-0.55-0.25-0.55-0.55v-0.7c0-0.3,0.25-0.55,0.55-0.55l0,0
		c0.3,0,0.55,0.25,0.55,0.55v0.7C92.03,36.09,91.79,36.33,91.48,36.33z"/>
	<path class="st2" d="M94.04,36.33L94.04,36.33c-0.3,0-0.55-0.25-0.55-0.55v-0.7c0-0.3,0.25-0.55,0.55-0.55l0,0
		c0.3,0,0.55,0.25,0.55,0.55v0.7C94.59,36.09,94.34,36.33,94.04,36.33z"/>
	<path class="st2" d="M96.36,36.33L96.36,36.33c-0.3,0-0.55-0.25-0.55-0.55v-0.7c0-0.3,0.25-0.55,0.55-0.55l0,0
		c0.3,0,0.55,0.25,0.55,0.55v0.7C96.91,36.09,96.67,36.33,96.36,36.33z"/>
	<path class="st2" d="M98.99,36.33L98.99,36.33c-0.3,0-0.55-0.25-0.55-0.55v-0.7c0-0.3,0.25-0.55,0.55-0.55l0,0
		c0.3,0,0.55,0.25,0.55,0.55v0.7C99.54,36.09,99.29,36.33,98.99,36.33z"/>
	<path class="st2" d="M101.55,36.33L101.55,36.33c-0.3,0-0.55-0.25-0.55-0.55v-0.7c0-0.3,0.25-0.55,0.55-0.55l0,0
		c0.3,0,0.55,0.25,0.55,0.55v0.7C102.1,36.09,101.85,36.33,101.55,36.33z"/>
	<path class="st2" d="M103.98,36.33L103.98,36.33c-0.3,0-0.55-0.25-0.55-0.55v-0.7c0-0.3,0.25-0.55,0.55-0.55l0,0
		c0.3,0,0.55,0.25,0.55,0.55v0.7C104.53,36.09,104.29,36.33,103.98,36.33z"/>
	<path class="st2" d="M58.92,36.33L58.92,36.33c-0.3,0-0.55-0.25-0.55-0.55v-0.7c0-0.3,0.25-0.55,0.55-0.55l0,0
		c0.3,0,0.55,0.25,0.55,0.55v0.7C59.47,36.09,59.22,36.33,58.92,36.33z"/>
	<path class="st2" d="M61.39,36.33L61.39,36.33c-0.3,0-0.55-0.25-0.55-0.55v-0.7c0-0.3,0.25-0.55,0.55-0.55l0,0
		c0.3,0,0.55,0.25,0.55,0.55v0.7C61.94,36.09,61.69,36.33,61.39,36.33z"/>
	<path class="st2" d="M63.94,36.33L63.94,36.33c-0.3,0-0.55-0.25-0.55-0.55v-0.7c0-0.3,0.25-0.55,0.55-0.55l0,0
		c0.3,0,0.55,0.25,0.55,0.55v0.7C64.49,36.09,64.25,36.33,63.94,36.33z"/>
	<path class="st2" d="M66.27,36.33L66.27,36.33c-0.3,0-0.55-0.25-0.55-0.55v-0.7c0-0.3,0.25-0.55,0.55-0.55l0,0
		c0.3,0,0.55,0.25,0.55,0.55v0.7C66.82,36.09,66.57,36.33,66.27,36.33z"/>
	<path class="st2" d="M68.89,36.33L68.89,36.33c-0.3,0-0.55-0.25-0.55-0.55v-0.7c0-0.3,0.25-0.55,0.55-0.55l0,0
		c0.3,0,0.55,0.25,0.55,0.55v0.7C69.44,36.09,69.2,36.33,68.89,36.33z"/>
	<path class="st2" d="M71.45,36.33L71.45,36.33c-0.3,0-0.55-0.25-0.55-0.55v-0.7c0-0.3,0.25-0.55,0.55-0.55l0,0
		c0.3,0,0.55,0.25,0.55,0.55v0.7C72.01,36.09,71.76,36.33,71.45,36.33z"/>
	<path class="st2" d="M73.89,36.33L73.89,36.33c-0.3,0-0.55-0.25-0.55-0.55v-0.7c0-0.3,0.25-0.55,0.55-0.55l0,0
		c0.3,0,0.55,0.25,0.55,0.55v0.7C74.44,36.09,74.19,36.33,73.89,36.33z"/>
	<path class="st2" d="M114.13,36.33L114.13,36.33c-0.3,0-0.55-0.25-0.55-0.55v-0.7c0-0.3,0.25-0.55,0.55-0.55l0,0
		c0.3,0,0.55,0.25,0.55,0.55v0.7C114.68,36.09,114.43,36.33,114.13,36.33z"/>
	<path class="st2" d="M116.45,36.33L116.45,36.33c-0.3,0-0.55-0.25-0.55-0.55v-0.7c0-0.3,0.25-0.55,0.55-0.55l0,0
		c0.3,0,0.55,0.25,0.55,0.55v0.7C117,36.09,116.76,36.33,116.45,36.33z"/>
	<path class="st2" d="M119.08,36.33L119.08,36.33c-0.3,0-0.55-0.25-0.55-0.55v-0.7c0-0.3,0.25-0.55,0.55-0.55l0,0
		c0.3,0,0.55,0.25,0.55,0.55v0.7C119.63,36.09,119.38,36.33,119.08,36.33z"/>
	<path class="st2" d="M121.64,36.33L121.64,36.33c-0.3,0-0.55-0.25-0.55-0.55v-0.7c0-0.3,0.25-0.55,0.55-0.55l0,0
		c0.3,0,0.55,0.25,0.55,0.55v0.7C122.19,36.09,121.95,36.33,121.64,36.33z"/>
	<path class="st2" d="M124.07,36.33L124.07,36.33c-0.3,0-0.55-0.25-0.55-0.55v-0.7c0-0.3,0.25-0.55,0.55-0.55h0
		c0.3,0,0.55,0.25,0.55,0.55v0.7C124.62,36.09,124.38,36.33,124.07,36.33z"/>
	<linearGradient id="SVGID_1_" gradientUnits="userSpaceOnUse" x1="145.1751" y1="29.5532" x2="145.1751" y2="27.822">
		<stop  offset="0" style="stop-color:#E6E7E8"/>
		<stop  offset="0.2379" style="stop-color:#F3F4F4;stop-opacity:0.8573"/>
		<stop  offset="0.544" style="stop-color:#FCFCFC;stop-opacity:0.6736"/>
		<stop  offset="1" style="stop-color:#FFFFFF;stop-opacity:0.4"/>
	</linearGradient>
	<path class="st5" d="M128.74,29.45l32.3,0.1l0.57-1.73l-26.67,0.1C132.84,28.4,130.78,28.92,128.74,29.45z"/>
	<path class="st6" d="M110.87,38.62l-6.89-0.66l-15.82,2.36c-0.68,0.1-1.34,0.26-1.99,0.48c-5.55,1.87-11.8,3.59-18.62,4.45
		c8.78-0.53,17.63-1.21,22.81-1.56l12.02-1.96C105.39,41.07,108.24,40.06,110.87,38.62z"/>
	<path class="st7" d="M58.08,42.95v9.19c-0.38,0.03-0.76-0.14-1.15-0.51v-7.34C57.29,43.64,57.68,43.25,58.08,42.95z"/>
	<path class="st0" d="M74.02,45.41v3.88c0,0.86-0.58,1.6-1.42,1.81c-4.17,1.04-9.16,1.65-14.52,1.04v-9.19
		c4.15-0.48,8.98-0.24,15.07,1.33C73.66,44.41,74.02,44.88,74.02,45.41z"/>
	<path class="st8" d="M58.08,51.38v0.76c-0.38,0.03-0.76-0.14-1.15-0.51v-0.76C57.32,51.24,57.7,51.41,58.08,51.38z"/>
	<path class="st1" d="M74.02,48.58v0.75c0,0.86-0.58,1.6-1.42,1.81c-4.17,1.04-9.16,1.65-14.52,1.05v-0.76
		c5.36,0.61,10.35,0,14.52-1.04C73.44,50.18,74.02,49.44,74.02,48.58z"/>
	<polygon class="st7" points="73.83,50.11 78.57,49.4 78.57,45.83 74.03,45.49 	"/>
	<path class="st8" d="M90.25,43.4c4.54,1.62,8.3,1.59,15.41,1.47l0.28-1.17l-5.67-1.64l-10.17,0.42L90.25,43.4z"/>
	<rect x="78.57" y="47.11" class="st7" width="2.34" height="1.32"/>
	<path class="st9" d="M110.87,38.62l5.11-10.79c-1.51-0.16-7.28,6.71-11.99,10.14L110.87,38.62z"/>
	<path class="st10" d="M145.72,33.19c3.19,2.43,5.95,4.7,7.36,6.48c4.2-1.2,7.96-2.62,11.32-4.23l-1.89-2.24H145.72z"/>
	<path class="st7" d="M145.72,33.19c5.53-1.17,11.03-2.34,15.28-3.24c1.01-0.21,2.03-0.32,3.05-0.32h4.19
		c0.34,0,0.47,0.44,0.18,0.61c-1.02,0.61-3.07,1.62-5.92,2.94C154.21,34.39,148.66,34.37,145.72,33.19z"/>
	<path class="st11" d="M145.72,33.19l15.89-3.35c0.97-0.16,1.76-0.17,2.45-0.2h4.19c0.33,0.11,0.48,0.29,0.18,0.61l-4.5-0.25
		c-0.65-0.02-1.47,0.08-2.33,0.22L145.72,33.19z"/>
	<path class="st7" d="M92.12,43c4.79,1.7,8.75,1.69,16.24,1.56l0.3-1.23l-5.98-1.72l-10.72,0.45L92.12,43z"/>
</g>
</svg>
