<?xml version="1.0" encoding="utf-8"?>
<!-- Generator: Adobe Illustrator 26.5.3, SVG Export Plug-In . SVG Version: 6.00 Build 0)  -->
<svg version="1.1" id="Layer_1" xmlns="http://www.w3.org/2000/svg" xmlns:xlink="http://www.w3.org/1999/xlink" x="0px" y="0px"
	 viewBox="0 0 100 30.7" style="enable-background:new 0 0 100 30.7;" xml:space="preserve">
<style type="text/css">
	.st0{fill:#FFFFFF;}
	.st1{fill:#EDEDED;}
	.st2{fill:#41C6E0;}
	.st3{fill:#FFEBF3;}
	.st4{fill:none;stroke:#EDEDED;stroke-width:0.2928;stroke-miterlimit:10;}
	.st5{fill:url(#SVGID_1_);}
	.st6{fill:#FFC2D9;}
	.st7{fill:#FF70AC;}
	.st8{fill:#E0518D;}
	.st9{fill:#FFD9E7;}
	.st10{opacity:0.68;fill:#DEDEDE;enable-background:new    ;}
	.st11{fill:#FFB3D3;}
	.st12{fill:none;}
	.st13{enable-background:new    ;}
</style>
<g>
	<path class="st0" d="M98.3,18.9c-1.8,3.8-21.5,7.9-31,7.9c-10.9,0.5-24.5,0.3-39.2,0H11.4c-2.5-0.1-4.7-0.2-6.4-0.5
		c-2.6-0.6-4.5-1.4-4.9-2.5C0,23.8,0,23.6,0,23.4c0.2-1.2,1.9-1.9,4.2-2.4c1.2-3.3,7-4.6,17.3-3.9l72.9,0.2c1.6,0.1,3.1,0.2,4.1,0.9
		C98.4,18.4,98.4,18.7,98.3,18.9z"/>
	<path class="st1" d="M67.3,26.8c-10.9,0.5-24.5,0.3-39.2,0H11.4c-2.5-0.1-4.7-0.2-6.4-0.5c-2.9-0.7-5-1.6-5-3c0-0.1,1.6,2.1,5,2.2
		c1.7,0.2,3.9,0.4,6.4,0.5h16.7c14.6,0.3,28.3,0.5,39.2,0c9.5,0,29.2-4.2,31-7.9c0,0,0.1,0,0.1,0C99.2,22.1,77.4,26.9,67.3,26.8z"/>
	<path class="st2" d="M62.4,21.3L62.4,21.3c-0.2,0-0.3-0.1-0.3-0.3v-0.4c0-0.2,0.1-0.3,0.3-0.3l0,0c0.2,0,0.3,0.1,0.3,0.3V21
		C62.7,21.1,62.5,21.3,62.4,21.3z"/>
	<path class="st0" d="M75.4,17.2l4.7-1.2c0.9-0.2,1.6-0.7,2.2-1.3L95.5,0h4.5l-5.7,17.3L75.4,17.2z"/>
	<path class="st3" d="M38.7,17.1c1-0.8,2-1.5,2.8-1.7c-0.2,0.6-0.4,1.2-0.9,1.7H38.7z"/>
	<path class="st3" d="M28.1,26.8c1.5-0.8,2.4-1.6,3-2.3c0.3-0.3,0.6-0.5,1-0.6c2.4-0.5,9.2-0.6,18.8-0.6L61,22
		c3.9-3.5,6.3-6.6,6.9-5.7l-3,6.3c-1.4,0.9-3.4,1.5-5.5,1.9l-6.3,0.3l0.1,0.8C43.5,26.3,34.5,26.9,28.1,26.8z"/>
	<path class="st4" d="M2.7,21.4c0.1,1.2,0,2.7,0,4.4"/>
	<path class="st3" d="M12.9,18.4h2.3c0.1,0,0.2,0.1,0.2,0.2v5.2c0,0.1-0.1,0.2-0.2,0.2h-2.3c-0.1,0-0.2-0.1-0.2-0.2v-5.2
		C12.7,18.5,12.8,18.4,12.9,18.4z"/>
	<path class="st2" d="M5.2,19.6h0.6l-0.7,1.2H4.3C4.6,20.4,4.8,20,5.2,19.6z"/>
	<polygon class="st2" points="6.1,19.6 7.3,19.6 6.6,20.8 5.4,20.8 	"/>
	<polygon class="st2" points="7.6,19.6 8.4,19.6 7.9,20.7 7,20.8 	"/>
	<polygon class="st2" points="8.7,19.6 9,20.5 8.3,20.7 	"/>
	<polygon class="st3" points="99.8,0.6 97.1,0.6 96.7,1.1 97.8,1.6 95.2,8.6 93.6,8.6 93.6,8.9 94.9,8.9 92.2,16.3 94.7,16.3 	"/>
	<path class="st3" d="M74.6,18.7h1.9c0.2,0,0.4,0.2,0.4,0.4v4.7c0,0.2-0.2,0.4-0.4,0.4h-2c-0.2,0-0.4-0.2-0.4-0.4l0.1-4.7
		C74.2,18.8,74.4,18.7,74.6,18.7z"/>
	<path class="st3" d="M47.1,19.7h1.3c0,0,0.1,0,0.1,0.1v2.9c0,0,0,0.1-0.1,0.1h-1.3c0,0-0.1,0-0.1-0.1L47.1,19.7
		C47,19.8,47.1,19.7,47.1,19.7z"/>
	<path class="st2" d="M17,21.3L17,21.3c-0.2,0-0.3-0.1-0.3-0.3v-0.4c0-0.2,0.1-0.3,0.3-0.3l0,0c0.2,0,0.3,0.1,0.3,0.3V21
		C17.3,21.1,17.1,21.3,17,21.3z"/>
	<path class="st2" d="M18.4,21.3L18.4,21.3c-0.2,0-0.3-0.1-0.3-0.3v-0.4c0-0.2,0.1-0.3,0.3-0.3l0,0c0.2,0,0.3,0.1,0.3,0.3V21
		C18.7,21.1,18.6,21.3,18.4,21.3z"/>
	<path class="st2" d="M19.8,21.3L19.8,21.3c-0.2,0-0.3-0.1-0.3-0.3v-0.4c0-0.2,0.1-0.3,0.3-0.3l0,0c0.2,0,0.3,0.1,0.3,0.3V21
		C20.1,21.1,20,21.3,19.8,21.3z"/>
	<path class="st2" d="M21.4,21.3L21.4,21.3c-0.2,0-0.3-0.1-0.3-0.3v-0.4c0-0.2,0.1-0.3,0.3-0.3l0,0c0.2,0,0.3,0.1,0.3,0.3V21
		C21.7,21.1,21.5,21.3,21.4,21.3z"/>
	<path class="st2" d="M22.8,21.3L22.8,21.3c-0.2,0-0.3-0.1-0.3-0.3v-0.4c0-0.2,0.1-0.3,0.3-0.3l0,0c0.2,0,0.3,0.1,0.3,0.3V21
		C23.1,21.1,23,21.3,22.8,21.3z"/>
	<path class="st2" d="M24.2,21.3L24.2,21.3c-0.2,0-0.3-0.1-0.3-0.3v-0.4c0-0.2,0.1-0.3,0.3-0.3l0,0c0.2,0,0.3,0.1,0.3,0.3V21
		C24.5,21.1,24.4,21.3,24.2,21.3z"/>
	<path class="st2" d="M25.7,21.3L25.7,21.3c-0.2,0-0.3-0.1-0.3-0.3v-0.4c0-0.2,0.1-0.3,0.3-0.3l0,0c0.2,0,0.3,0.1,0.3,0.3V21
		C26,21.1,25.9,21.3,25.7,21.3z"/>
	<path class="st2" d="M27.1,21.3L27.1,21.3c-0.2,0-0.3-0.1-0.3-0.3v-0.4c0-0.2,0.1-0.3,0.3-0.3l0,0c0.2,0,0.3,0.1,0.3,0.3V21
		C27.4,21.1,27.2,21.3,27.1,21.3z"/>
	<path class="st2" d="M28.6,21.3L28.6,21.3c-0.2,0-0.3-0.1-0.3-0.3v-0.4c0-0.2,0.1-0.3,0.3-0.3l0,0c0.2,0,0.3,0.1,0.3,0.3V21
		C28.9,21.1,28.8,21.3,28.6,21.3z"/>
	<path class="st2" d="M30.1,21.3L30.1,21.3c-0.2,0-0.3-0.1-0.3-0.3v-0.4c0-0.2,0.1-0.3,0.3-0.3l0,0c0.2,0,0.3,0.1,0.3,0.3V21
		C30.4,21.1,30.3,21.3,30.1,21.3z"/>
	<path class="st2" d="M31.5,21.3L31.5,21.3c-0.2,0-0.3-0.1-0.3-0.3v-0.4c0-0.2,0.1-0.3,0.3-0.3l0,0c0.2,0,0.3,0.1,0.3,0.3V21
		C31.9,21.1,31.7,21.3,31.5,21.3z"/>
	<path class="st2" d="M46.3,21.3L46.3,21.3c-0.2,0-0.3-0.1-0.3-0.3v-0.4c0-0.2,0.1-0.3,0.3-0.3l0,0c0.2,0,0.3,0.1,0.3,0.3V21
		C46.7,21.1,46.5,21.3,46.3,21.3z"/>
	<path class="st2" d="M47.8,21.3L47.8,21.3c-0.2,0-0.3-0.1-0.3-0.3v-0.4c0-0.2,0.1-0.3,0.3-0.3l0,0c0.2,0,0.3,0.1,0.3,0.3V21
		C48.1,21.1,47.9,21.3,47.8,21.3z"/>
	<path class="st2" d="M49.2,21.3L49.2,21.3c-0.2,0-0.3-0.1-0.3-0.3v-0.4c0-0.2,0.1-0.3,0.3-0.3l0,0c0.2,0,0.3,0.1,0.3,0.3V21
		C49.5,21.1,49.4,21.3,49.2,21.3z"/>
	<path class="st2" d="M50.7,21.3L50.7,21.3c-0.2,0-0.3-0.1-0.3-0.3v-0.4c0-0.2,0.1-0.3,0.3-0.3l0,0c0.2,0,0.3,0.1,0.3,0.3V21
		C51,21.1,50.9,21.3,50.7,21.3z"/>
	<path class="st2" d="M52.1,21.3L52.1,21.3c-0.2,0-0.3-0.1-0.3-0.3v-0.4c0-0.2,0.1-0.3,0.3-0.3l0,0c0.2,0,0.3,0.1,0.3,0.3V21
		C52.5,21.1,52.3,21.3,52.1,21.3z"/>
	<path class="st2" d="M53.6,21.3L53.6,21.3c-0.2,0-0.3-0.1-0.3-0.3v-0.4c0-0.2,0.1-0.3,0.3-0.3l0,0c0.2,0,0.3,0.1,0.3,0.3V21
		C53.9,21.1,53.8,21.3,53.6,21.3z"/>
	<path class="st2" d="M55.1,21.3L55.1,21.3c-0.2,0-0.3-0.1-0.3-0.3v-0.4c0-0.2,0.1-0.3,0.3-0.3l0,0c0.2,0,0.3,0.1,0.3,0.3V21
		C55.4,21.1,55.2,21.3,55.1,21.3z"/>
	<path class="st2" d="M56.4,21.3L56.4,21.3c-0.2,0-0.3-0.1-0.3-0.3v-0.4c0-0.2,0.1-0.3,0.3-0.3l0,0c0.2,0,0.3,0.1,0.3,0.3V21
		C56.8,21.1,56.6,21.3,56.4,21.3z"/>
	<path class="st2" d="M58,21.3L58,21.3c-0.2,0-0.3-0.1-0.3-0.3v-0.4c0-0.2,0.1-0.3,0.3-0.3l0,0c0.2,0,0.3,0.1,0.3,0.3V21
		C58.3,21.1,58.2,21.3,58,21.3z"/>
	<path class="st2" d="M59.5,21.3L59.5,21.3c-0.2,0-0.3-0.1-0.3-0.3v-0.4c0-0.2,0.1-0.3,0.3-0.3l0,0c0.2,0,0.3,0.1,0.3,0.3V21
		C59.8,21.1,59.7,21.3,59.5,21.3z"/>
	<path class="st2" d="M60.9,21.3L60.9,21.3c-0.2,0-0.3-0.1-0.3-0.3v-0.4c0-0.2,0.1-0.3,0.3-0.3l0,0c0.2,0,0.3,0.1,0.3,0.3V21
		C61.2,21.1,61.1,21.3,60.9,21.3z"/>
	<path class="st2" d="M34.5,21.3L34.5,21.3c-0.2,0-0.3-0.1-0.3-0.3v-0.4c0-0.2,0.1-0.3,0.3-0.3l0,0c0.2,0,0.3,0.1,0.3,0.3V21
		C34.8,21.1,34.7,21.3,34.5,21.3z"/>
	<path class="st2" d="M36,21.3L36,21.3c-0.2,0-0.3-0.1-0.3-0.3v-0.4c0-0.2,0.1-0.3,0.3-0.3l0,0c0.2,0,0.3,0.1,0.3,0.3V21
		C36.3,21.1,36.1,21.3,36,21.3z"/>
	<path class="st2" d="M37.5,21.3L37.5,21.3c-0.2,0-0.3-0.1-0.3-0.3v-0.4c0-0.2,0.1-0.3,0.3-0.3l0,0c0.2,0,0.3,0.1,0.3,0.3V21
		C37.8,21.1,37.6,21.3,37.5,21.3z"/>
	<path class="st2" d="M38.8,21.3L38.8,21.3c-0.2,0-0.3-0.1-0.3-0.3v-0.4c0-0.2,0.1-0.3,0.3-0.3l0,0c0.2,0,0.3,0.1,0.3,0.3V21
		C39.1,21.1,39,21.3,38.8,21.3z"/>
	<path class="st2" d="M40.3,21.3L40.3,21.3c-0.2,0-0.3-0.1-0.3-0.3v-0.4c0-0.2,0.1-0.3,0.3-0.3l0,0c0.2,0,0.3,0.1,0.3,0.3V21
		C40.7,21.1,40.5,21.3,40.3,21.3z"/>
	<path class="st2" d="M41.8,21.3L41.8,21.3c-0.2,0-0.3-0.1-0.3-0.3v-0.4c0-0.2,0.1-0.3,0.3-0.3l0,0c0.2,0,0.3,0.1,0.3,0.3V21
		C42.2,21.1,42,21.3,41.8,21.3z"/>
	<path class="st2" d="M43.3,21.3L43.3,21.3c-0.2,0-0.3-0.1-0.3-0.3v-0.4c0-0.2,0.1-0.3,0.3-0.3l0,0c0.2,0,0.3,0.1,0.3,0.3V21
		C43.6,21.1,43.5,21.3,43.3,21.3z"/>
	<path class="st2" d="M66.8,21.3L66.8,21.3c-0.2,0-0.3-0.1-0.3-0.3v-0.4c0-0.2,0.1-0.3,0.3-0.3l0,0c0.2,0,0.3,0.1,0.3,0.3V21
		C67.2,21.1,67,21.3,66.8,21.3z"/>
	<path class="st2" d="M68.2,21.3L68.2,21.3c-0.2,0-0.3-0.1-0.3-0.3v-0.4c0-0.2,0.1-0.3,0.3-0.3l0,0c0.2,0,0.3,0.1,0.3,0.3V21
		C68.5,21.1,68.4,21.3,68.2,21.3z"/>
	<path class="st2" d="M69.7,21.3L69.7,21.3c-0.2,0-0.3-0.1-0.3-0.3v-0.4c0-0.2,0.1-0.3,0.3-0.3l0,0c0.2,0,0.3,0.1,0.3,0.3V21
		C70.1,21.1,69.9,21.3,69.7,21.3z"/>
	<path class="st2" d="M71.2,21.3L71.2,21.3c-0.2,0-0.3-0.1-0.3-0.3v-0.4c0-0.2,0.1-0.3,0.3-0.3l0,0c0.2,0,0.3,0.1,0.3,0.3V21
		C71.6,21.1,71.4,21.3,71.2,21.3z"/>
	<path class="st2" d="M72.7,21.3L72.7,21.3c-0.2,0-0.3-0.1-0.3-0.3v-0.4c0-0.2,0.1-0.3,0.3-0.3l0,0c0.2,0,0.3,0.1,0.3,0.3V21
		C73,21.1,72.8,21.3,72.7,21.3z"/>
	
		<linearGradient id="SVGID_1_" gradientUnits="userSpaceOnUse" x1="85.025" y1="14.6913" x2="85.025" y2="15.7052" gradientTransform="matrix(1 0 0 -1 0 32)">
		<stop  offset="0" style="stop-color:#E6E7E8"/>
		<stop  offset="0.2379" style="stop-color:#F3F4F4;stop-opacity:0.8573"/>
		<stop  offset="0.544" style="stop-color:#FCFCFC;stop-opacity:0.6736"/>
		<stop  offset="1" style="stop-color:#FFFFFF;stop-opacity:0.4"/>
	</linearGradient>
	<path class="st5" d="M75.4,17.2l18.9,0.1l0.3-1L79,16.4C77.8,16.6,76.6,16.9,75.4,17.2z"/>
	<path class="st6" d="M64.9,22.6l-4-0.4l-9.3,1.4c-0.4,0.1-0.8,0.1-1.2,0.3c-3.2,1.1-6.9,2.1-10.9,2.6c5.1-0.3,10.3-0.7,13.4-0.9
		l7-1.1C61.7,24,63.4,23.5,64.9,22.6z"/>
	<path class="st7" d="M34,25.2v5.4c-0.2,0-0.5-0.1-0.7-0.3v-4.3C33.5,25.6,33.8,25.3,34,25.2z"/>
	<path class="st0" d="M43.3,26.6v2.3c0,0.5-0.3,0.9-0.8,1.1c-2.4,0.6-5.4,1-8.5,0.6v-5.4c2.4-0.3,5.3-0.1,8.8,0.8
		C43.1,26,43.3,26.3,43.3,26.6z"/>
	<path class="st8" d="M34,30.1v0.5c-0.2,0-0.5-0.1-0.7-0.3v-0.4C33.6,30,33.8,30.1,34,30.1z"/>
	<path class="st1" d="M43.3,28.5v0.4c0,0.5-0.3,0.9-0.8,1.1c-2.4,0.6-5.4,1-8.5,0.6v-0.5c3.1,0.4,6.1,0,8.5-0.6
		C43,29.4,43.3,29,43.3,28.5z"/>
	<polygon class="st7" points="43.2,29.4 46,28.9 46,26.8 43.4,26.6 	"/>
	<path class="st8" d="M52.8,25.4c2.7,1,4.9,0.9,9,0.9l0.2-0.7l-3.3-1l-6,0.2L52.8,25.4z"/>
	<rect x="46" y="27.6" class="st7" width="1.4" height="0.8"/>
	<path class="st9" d="M64.9,22.6l3-6.3c-0.9-0.1-4.3,3.9-7,5.9L64.9,22.6z"/>
	<path class="st10" d="M85.3,19.4c1.9,1.4,3.5,2.8,4.3,3.8c2.5-0.7,4.7-1.5,6.6-2.5l-1.1-1.3H85.3z"/>
	<path class="st7" d="M85.3,19.4c3.2-0.7,6.5-1.4,8.9-1.9c0.6-0.1,1.2-0.2,1.8-0.2h2.5c0.2,0,0.3,0.3,0.1,0.4
		c-0.6,0.4-1.8,1-3.5,1.7C90.3,20.1,87.1,20.1,85.3,19.4z"/>
	<path class="st11" d="M85.3,19.4l9.3-2c0.6-0.1,1-0.1,1.4-0.1h2.5c0.2,0.1,0.3,0.2,0.1,0.4L96,17.6c-0.4,0-0.9,0-1.4,0.1L85.3,19.4
		z"/>
	<path class="st7" d="M54,25.2c2.8,1,5.1,1,9.5,0.9l0.2-0.7l-3.5-1l-6.3,0.3L54,25.2z"/>
	<rect x="87.2" y="10.4" class="st12" width="4.6" height="5.8"/>
	<g class="st13">
		<path class="st7" d="M91.5,11.1c0,0.5-0.3,1-0.9,1.3c0.4,0.2,0.6,0.5,0.6,1c0,0.5-0.2,0.9-0.5,1.2c-0.4,0.4-0.9,0.5-1.5,0.5
			c-0.3,0-0.6,0-0.9-0.1c-0.2-0.1-0.4-0.2-0.6-0.2l0.7-2.9c0.1-0.2,0.1-0.4,0-0.6l1-0.3l-0.3,1.1h0.1c0.3,0,0.6,0,0.8-0.1
			c0.2-0.1,0.3-0.2,0.4-0.3c0.1-0.2,0.2-0.3,0.2-0.6c0-0.5-0.3-0.7-1-0.7c-0.6,0-1,0.2-1.3,0.5c-0.2,0.2-0.3,0.4-0.3,0.6
			c0,0.1,0,0.2-0.1,0.5c-0.2-0.2-0.3-0.3-0.3-0.3c-0.1-0.1-0.2-0.3-0.2-0.4c0-0.4,0.2-0.8,0.6-1.1c0.4-0.3,0.9-0.5,1.6-0.5
			c0.5,0,1,0.1,1.3,0.4C91.3,10.4,91.5,10.7,91.5,11.1z M90.4,13.3c0-0.4-0.3-0.6-0.8-0.7c-0.1,0-0.3,0-0.6,0l-0.4,1.6
			c0.2,0.1,0.4,0.1,0.5,0.1c0.4,0,0.6-0.1,0.9-0.4C90.3,13.9,90.4,13.6,90.4,13.3z"/>
	</g>
</g>
</svg>
