<?xml version="1.0" encoding="UTF-8"?>
<svg id="bed" xmlns="http://www.w3.org/2000/svg" viewBox="0 0 250 250">
  <defs>
    <style>
      .cls-1 {
        fill: #bbbdbf;
      }
    </style>
  </defs>
  <path class="cls-1" d="m239.12,179.2c-.04-3.73-.04-6.22-.04-6.22,0-4.31-1.18-8.35-3.25-11.83-.52-.87-1.09-1.7-1.71-2.49-.68-1.15-1.46-2.16-2.32-3.05.27.27.53.55.77.86,0,0-1.64-3.14-2.81-4.67-3.97-5.9-6.61-12.14-12.97-15.27v-63.06h-3.05c-.24.02-.55-.01-.8-.01-4.97,0-8.93-3.91-8.93-8.8,0-.05,0-.1,0-.15-15.47-10.5-43.82-17.54-76.26-17.54s-60.53,6.97-76.05,17.39c0,.1.02.2.02.3,0,4.89-4.09,8.8-9.06,8.8-.25,0-.43.03-.68.01h-3.09v64.15c-7,5.99-11.42,13.99-17.55,21.14.26-.31.55-.6.82-.89-.21.26-.41.52-.61.8-.62.79-1.19,1.62-1.71,2.49-1.03,1.74-1.85,3.61-2.4,5.6-2.15,16.25-4.62,32,.31,46.55,0,1.17,4.59-1.05,6.92-2.33v11.88h206.34v-9.77c3.17-.06,6.3-.16,9.32-.29,0,0,.08-2.49.1-6.22.34-9.03-2.13-18.72-1.3-27.37Z"/>
</svg>