<?xml version="1.0" encoding="UTF-8"?>
<svg id="chandelier" xmlns="http://www.w3.org/2000/svg" viewBox="0 0 200 200">
  <defs>
    <style>
      .cls-1, .cls-2 {
        stroke-width: 5px;
      }

      .cls-1, .cls-2, .cls-3, .cls-4 {
        stroke: #231f20;
        stroke-linecap: round;
        stroke-linejoin: round;
      }

      .cls-1, .cls-3 {
        fill: #231f20;
      }

      .cls-2, .cls-4 {
        fill: none;
      }

      .cls-3, .cls-4 {
        stroke-width: 3px;
      }
    </style>
  </defs>
  <path class="cls-2" d="m142.98,127.92c-1.94,1.88-4.53,2.65-6.51,1.81-3-1.28-3.24-5.71-2.53-8.32,1.02-3.78,4.44-5.31,4.7-5.42,2.99-1.28,5.74-.22,7.23.36,1.36.52,4.76,2.12,6.51,5.79,3.06,6.41-1.87,12.99-2.17,13.38-3.23,4.18-7.87,5.16-10.85,5.79-1.77.37-8.24,1.64-15.19-1.81-1.82-.9-9.06-4.8-11.57-13.38-.73-2.49-2.15-9.08,1.45-15.19.67-1.15,4.57-7.76,10.13-7.23,2.61.25,5.59,2.08,6.51,5.06.71,2.29.47,6.12-2.17,7.23-1.9.8-4.48-.04-6.15-2.17"/>
  <path class="cls-2" d="m129.6,98.63c2.35.75,3.37-.73,4.06-2.13,1.51-3.07-1.74-5.49-1.93-5.67-1.6-1.58-3.56-2.33-6.46-1.24-4.33,1.62-4.35,7.96-4.34,8.68.03,2.53.94,4.47,1.52,5.49"/>
  <path class="cls-2" d="m115.95,71.14c.59.28,3.96,1.95,5.06,5.79.11.37,1.43,5.23-1.45,7.59-2.45,2.01-6.45.98-8.68-.72-4.25-3.25-3.81-10.25-1.81-14.47.59-1.24,2.35-4.96,5.79-5.42,2.36-.32,5.57.9,5.79,2.89.18,1.65-1.69,3.77-4.7,4.34Z"/>
  <path class="cls-2" d="m101.3,121.16c2.06-1.63,10.56-7.63,13.49-11.43,3.7-4.8,6.84-10.31,6.13-15.89-.47-3.65-2.47-7.74-6.55-8.34-2.61-.39-6.57.93-7.19,4.09-.49,2.49,1.24,5.4,4.34,6.51"/>
  <path class="cls-2" d="m115.13,149.62c-2.78-2.85-3.22-6.89-1.45-9.4,2.35-3.32,7.73-2.78,10.49-.72,4.17,3.11,3.65,10.67.36,15.19-3.75,5.16-10.18,5.07-10.49,5.06-5.16-.15-10.69-3.93-12.75-9.05"/>
  <path class="cls-1" d="m108.31,82.63c0,5.33-4.26,20.17-9.59,20.17s-9.7-14.85-9.7-20.17,4.32-9.64,9.64-9.64,9.64,4.32,9.64,9.64Z"/>
  <rect class="cls-1" x="96.03" y="28.78" width="5.27" height="121.92"/>
  <path class="cls-3" d="m150.93,149.23c0,1.37-.72,2.48-1.61,2.48s-1.61-1.11-1.61-2.48,1.61-5.13,1.61-5.13c0,0,1.61,3.76,1.61,5.13Z"/>
  <line class="cls-4" x1="149.31" y1="144.1" x2="149.31" y2="136.56"/>
  <path class="cls-3" d="m135.45,156.8c0,1.37-.72,2.48-1.61,2.48s-1.61-1.11-1.61-2.48,1.61-5.13,1.61-5.13c0,0,1.61,3.76,1.61,5.13Z"/>
  <line class="cls-4" x1="133.84" y1="151.67" x2="133.84" y2="144.14"/>
  <path class="cls-3" d="m128.29,129.86c0,1.37-.72,2.48-1.61,2.48s-1.61-1.11-1.61-2.48,1.61-5.13,1.61-5.13c0,0,1.61,3.76,1.61,5.13Z"/>
  <line class="cls-4" x1="126.67" y1="124.73" x2="126.67" y2="117.19"/>
  <path class="cls-3" d="m102.06,168.33c0,3.52-1.52,4.46-3.4,4.46s-3.4-.94-3.4-4.46,3.4-15.09,3.4-15.09c0,0,3.4,11.57,3.4,15.09Z"/>
  <path class="cls-2" d="m54.25,127.92c1.94,1.88,4.53,2.65,6.51,1.81,3-1.28,3.24-5.71,2.53-8.32-1.02-3.78-4.44-5.31-4.7-5.42-2.99-1.28-5.74-.22-7.23.36-1.36.52-4.76,2.12-6.51,5.79-3.06,6.41,1.87,12.99,2.17,13.38,3.23,4.18,7.87,5.16,10.85,5.79,1.77.37,8.24,1.64,15.19-1.81,1.82-.9,9.06-4.8,11.57-13.38.73-2.49,2.15-9.08-1.45-15.19-.67-1.15-4.57-7.76-10.13-7.23-2.61.25-5.59,2.08-6.51,5.06-.71,2.29-.47,6.12,2.17,7.23,1.9.8,4.48-.04,6.15-2.17"/>
  <path class="cls-2" d="m67.63,98.63c-2.35.75-3.37-.73-4.06-2.13-1.51-3.07,1.74-5.49,1.93-5.67,1.6-1.58,3.56-2.33,6.46-1.24,4.33,1.62,4.35,7.96,4.34,8.68-.03,2.53-.94,4.47-1.52,5.49"/>
  <path class="cls-2" d="m81.28,71.14c-.59.28-3.96,1.95-5.06,5.79-.11.37-1.43,5.23,1.45,7.59,2.45,2.01,6.45.98,8.68-.72,4.25-3.25,3.81-10.25,1.81-14.47-.59-1.24-2.35-4.96-5.79-5.42-2.36-.32-5.57.9-5.79,2.89-.18,1.65,1.69,3.77,4.7,4.34Z"/>
  <path class="cls-2" d="m95.93,121.16c-2.06-1.63-10.56-7.63-13.49-11.43-3.7-4.8-6.84-10.31-6.13-15.89.47-3.65,2.47-7.74,6.55-8.34,2.61-.39,6.57.93,7.19,4.09.49,2.49-1.24,5.4-4.34,6.51"/>
  <path class="cls-2" d="m82.09,149.62c2.78-2.85,3.22-6.89,1.45-9.4-2.35-3.32-7.73-2.78-10.49-.72-4.17,3.11-3.65,10.67-.36,15.19,3.75,5.16,10.18,5.07,10.49,5.06,5.16-.15,10.69-3.93,12.75-9.05"/>
  <path class="cls-3" d="m46.3,149.23c0,1.37.72,2.48,1.61,2.48s1.61-1.11,1.61-2.48-1.61-5.13-1.61-5.13c0,0-1.61,3.76-1.61,5.13Z"/>
  <line class="cls-4" x1="47.92" y1="144.1" x2="47.92" y2="136.56"/>
  <path class="cls-3" d="m61.77,156.8c0,1.37.72,2.48,1.61,2.48s1.61-1.11,1.61-2.48-1.61-5.13-1.61-5.13c0,0-1.61,3.76-1.61,5.13Z"/>
  <line class="cls-4" x1="63.39" y1="151.67" x2="63.39" y2="144.14"/>
  <path class="cls-3" d="m68.94,129.86c0,1.37.72,2.48,1.61,2.48s1.61-1.11,1.61-2.48-1.61-5.13-1.61-5.13c0,0-1.61,3.76-1.61,5.13Z"/>
  <line class="cls-4" x1="70.56" y1="124.73" x2="70.56" y2="117.19"/>
</svg>