<?xml version="1.0" encoding="UTF-8"?>
<svg id="dining_room" data-name="dining room" xmlns="http://www.w3.org/2000/svg" viewBox="0 0 200 200">
  <defs>
    <style>
      .cls-1 {
        fill: #8a5d3b;
      }

      .cls-1, .cls-2, .cls-3, .cls-4, .cls-5, .cls-6 {
        stroke-linecap: round;
        stroke-linejoin: round;
      }

      .cls-1, .cls-4 {
        stroke: #603813;
      }

      .cls-2 {
        fill: #069d98;
      }

      .cls-2, .cls-3 {
        stroke: #04625f;
      }

      .cls-3 {
        fill: #3dccc7;
      }

      .cls-4 {
        fill: #a87c4f;
      }

      .cls-5 {
        fill: #808184;
      }

      .cls-5, .cls-6 {
        stroke: #231f20;
      }

      .cls-6 {
        fill: #a6a8ab;
      }
    </style>
  </defs>
  <g id="table">
    <g id="table_top" data-name="table top">
      <path class="cls-6" d="m138.16,123.34c1.62,1.58,4.35,4.69,5.63,9.38.87,3.21.71,5.87.55,8.16-.27,3.95-1.09,5.54-2.54,11.58-.16.66-1.27,5.35-1.88,9.27-.2,1.32-1.15,7.78-.44,15.66.84,9.3,3.68,17.03,6.4,22.61h-4.39c-2.72-5.58-5.56-13.31-6.4-22.61-.71-7.88-.48-14.39-.42-15.72.17-3.58.17-5.86.61-10.24.69-6.73.71-9.2.74-10.22.07-2.76-.55-5.6-1.45-7.75s-4.94-10.12-11.97-10.12h15.55Z"/>
      <path class="cls-5" d="m145.89,200c-2.72-5.58-5.56-13.31-6.4-22.61-.71-7.88.24-14.35.44-15.66.6-3.91,1.72-8.6,1.88-9.27,1.44-6.04,2.27-7.63,2.54-11.58.16-2.29.32-4.96-.55-8.16-1.27-4.68-4-7.8-5.63-9.38h1.95c1.62,1.58,4.35,4.69,5.63,9.38.87,3.21.71,5.87.55,8.16-.27,3.95-1.09,5.54-2.54,11.58-.16.66-1.27,5.35-1.88,9.27-.2,1.32-1.15,7.78-.44,15.66.84,9.3,2.69,14.9,5.41,20.49l-.96,2.12Z"/>
      <path class="cls-6" d="m61.84,123.34c-1.62,1.58-4.35,4.69-5.63,9.38-.87,3.21-.71,5.87-.55,8.16.27,3.95,1.09,5.54,2.54,11.58.16.66,1.27,5.35,1.88,9.27.2,1.32,1.15,7.78.44,15.66-.84,9.3-3.68,17.03-6.4,22.61h4.39c2.72-5.58,5.56-13.31,6.4-22.61.71-7.88.48-14.39.42-15.72-.17-3.58-.17-5.86-.61-10.24-.69-6.73-.71-9.2-.74-10.22-.07-2.76.55-5.6,1.45-7.75s4.94-10.12,11.97-10.12h-15.55Z"/>
      <path class="cls-5" d="m54.11,200c2.72-5.58,5.56-13.31,6.4-22.61.71-7.88-.24-14.35-.44-15.66-.6-3.91-1.72-8.6-1.88-9.27-1.44-6.04-2.27-7.63-2.54-11.58-.16-2.29-.32-4.96.55-8.16,1.27-4.68,4-7.8,5.63-9.38h-1.95c-1.62,1.58-4.35,4.69-5.63,9.38-.87,3.21-.71,5.87-.55,8.16.27,3.95,1.09,5.54,2.54,11.58.16.66,1.27,5.35,1.88,9.27.2,1.32,1.15,7.78.44,15.66-.84,9.3-2.69,14.9-5.41,20.49l.96,2.12Z"/>
      <polygon class="cls-1" points="100.7 117.44 99.3 117.44 45.59 117.44 45.59 123.34 99.3 123.34 100.7 123.34 154.41 123.34 154.41 117.44 100.7 117.44"/>
      <polygon class="cls-4" points="149.14 107.86 100.54 107.86 99.46 107.86 50.86 107.86 45.59 117.44 99.3 117.44 100.7 117.44 154.41 117.44 149.14 107.86"/>
    </g>
  </g>
  <g id="chair">
    <polygon class="cls-3" points="2.35 190.03 2.35 194.5 28.85 197.53 28.85 192.92 2.35 190.03"/>
    <path class="cls-3" d="m24.53,144.85h-5.73c1.39,10.27.85,18.43.12,23.89-.71,5.29-1.54,7.62-2.54,9.56-3.71,7.16-10.59,10.41-14.03,11.73,8.83.97,17.66,1.93,26.49,2.9-1.27-2.31-2.94-5.85-3.99-10.4-1.17-5.05-1.05-9.01-.97-11.73.23-7.72.41-16.13.65-25.94Z"/>
    <polygon class="cls-2" points="48.39 188.2 48.39 192.49 28.85 197.53 28.85 192.92 48.39 188.2"/>
    <path class="cls-2" d="m24.53,144.85c1.01-.02,2.02-.05,3.03-.07-.92,6.89-1.16,14.99.27,23.87.15.94.15,2.68.91,4.75.29.78.78,1.92,2.01,3.75.83,1.24,2.6,3.86,5.21,6.03,4.6,3.83,10.02,4.75,12.42,5.02-6.51,1.58-13.03,3.15-19.54,4.73-1.27-2.31-2.94-5.85-3.99-10.4-1.17-5.05-1.05-9.01-.97-11.73.23-7.72.41-16.13.65-25.94Z"/>
    <path class="cls-3" d="m11.85,100.69c7.42,12.96,11.66,15.46,16.26,17.62.45.21,3.37,1.16,7.28,2.2,2.4.64,3.5.99,4.68,1.42,5.19,1.88,7.28,7.07,7.69,8.06.24.6,1.29,3.26,1.19,6.78-.05,1.59-.07,2.43-.51,3.39-1.76,3.86-7.81,4.33-8.81,4.4-4.71.37-8.24-1.71-9.49-2.54-.77-.51-3.56-2.3-5.54-6.43-.9-1.87-1.72-4.03-2.38-5.08-.78-1.24-1.1-1.89-4.96-3.91-3.49-1.83-4.54-1.73-6.44-2.71-4.75-2.45-7.07-7.32-8.13-11.01-1.35-4.69-2.26-10.5-.52-13.59.85-1.5,1.66-2.14,3.88-2.19,2.57-.05,4.6,1.52,5.78,3.58Z"/>
    <path class="cls-2" d="m48.44,140.16c-.86.92-3.73,3.75-8.37,4.37-5.01.67-8.71-1.7-9.93-2.5-3.3-2.19-4.9-5.07-5.54-6.43,9.03,1.03,14.77,1.47,17.49,1.31.49-.03,1.95-.14,3.49.6,1.43.69,2.32,1.81,2.85,2.65Z"/>
    <path class="cls-3" d="m39.63,144.57c0-.09-5.27.18-9.49-2.54-.46-.29-.83-.58-.91-.64-1.2-.91-3.14-2.69-4.63-5.79-.9-1.87-1.72-4.03-2.38-5.08-.78-1.24-1.1-1.89-4.96-3.91-3.49-1.83-4.54-1.73-6.44-2.71-3.56-1.83-6.81-7.28-8.13-11.01-.69-1.95-1.53-5.1-1.47-9.17-.69,5.36-.76,9.87-.68,13.16.16,6.15.37,12.05,3.46,18.48,2.39,4.98,4.8,6.71,5.93,7.41,2.66,1.65,5.33,2,6.92,2.07,18.48-.1,22.78-.2,22.78-.28Z"/>
  </g>
  <g id="chair_copy" data-name="chair copy">
    <polygon class="cls-3" points="197.65 190.03 197.65 194.5 171.15 197.53 171.15 192.92 197.65 190.03"/>
    <path class="cls-3" d="m175.47,144.85h5.73c-1.39,10.27-.85,18.43-.12,23.89.71,5.29,1.54,7.62,2.54,9.56,3.71,7.16,10.59,10.41,14.03,11.73-8.83.97-17.66,1.93-26.49,2.9,1.27-2.31,2.94-5.85,3.99-10.4,1.17-5.05,1.05-9.01.97-11.73-.23-7.72-.41-16.13-.65-25.94Z"/>
    <polygon class="cls-2" points="151.61 188.2 151.61 192.49 171.15 197.53 171.15 192.92 151.61 188.2"/>
    <path class="cls-2" d="m175.47,144.85c-1.01-.02-2.02-.05-3.03-.07.92,6.89,1.16,14.99-.27,23.87-.15.94-.15,2.68-.91,4.75-.29.78-.78,1.92-2.01,3.75-.83,1.24-2.6,3.86-5.21,6.03-4.6,3.83-10.02,4.75-12.42,5.02,6.51,1.58,13.03,3.15,19.54,4.73,1.27-2.31,2.94-5.85,3.99-10.4,1.17-5.05,1.05-9.01.97-11.73-.23-7.72-.41-16.13-.65-25.94Z"/>
    <path class="cls-3" d="m188.15,100.69c-7.42,12.96-11.66,15.46-16.26,17.62-.45.21-3.37,1.16-7.28,2.2-2.4.64-3.5.99-4.68,1.42-5.19,1.88-7.28,7.07-7.69,8.06-.24.6-1.29,3.26-1.19,6.78.05,1.59.07,2.43.51,3.39,1.76,3.86,7.81,4.33,8.81,4.4,4.71.37,8.24-1.71,9.49-2.54.77-.51,3.56-2.3,5.54-6.43.9-1.87,1.72-4.03,2.38-5.08.78-1.24,1.1-1.89,4.96-3.91,3.49-1.83,4.54-1.73,6.44-2.71,4.75-2.45,7.07-7.32,8.13-11.01,1.35-4.69,2.26-10.5.52-13.59-.85-1.5-1.66-2.14-3.88-2.19-2.57-.05-4.6,1.52-5.78,3.58Z"/>
    <path class="cls-2" d="m151.56,140.16c.86.92,3.73,3.75,8.37,4.37,5.01.67,8.71-1.7,9.93-2.5,3.3-2.19,4.9-5.07,5.54-6.43-9.03,1.03-14.77,1.47-17.49,1.31-.49-.03-1.95-.14-3.49.6-1.43.69-2.32,1.81-2.85,2.65Z"/>
    <path class="cls-3" d="m160.37,144.57c0-.09,5.27.18,9.49-2.54.46-.29.83-.58.91-.64,1.2-.91,3.14-2.69,4.63-5.79.9-1.87,1.72-4.03,2.38-5.08.78-1.24,1.1-1.89,4.96-3.91,3.49-1.83,4.54-1.73,6.44-2.71,3.56-1.83,6.81-7.28,8.13-11.01.69-1.95,1.53-5.1,1.47-9.17.69,5.36.76,9.87.68,13.16-.16,6.15-.37,12.05-3.46,18.48-2.39,4.98-4.8,6.71-5.93,7.41-2.66,1.65-5.33,2-6.92,2.07-18.48-.1-22.78-.2-22.78-.28Z"/>
  </g>
</svg>