<?xml version="1.0" encoding="UTF-8"?>
<svg id="kitchen" xmlns="http://www.w3.org/2000/svg" viewBox="0 0 200 200">
  <defs>
    <style>
      .cls-1 {
        fill: #8a5d3b;
        stroke: #603813;
      }

      .cls-1, .cls-2, .cls-3, .cls-4, .cls-5, .cls-6, .cls-7, .cls-8, .cls-9, .cls-10, .cls-11, .cls-12, .cls-13 {
        stroke-linecap: round;
        stroke-linejoin: round;
      }

      .cls-2 {
        fill: #6d6e70;
      }

      .cls-2, .cls-3, .cls-4, .cls-5, .cls-7, .cls-8, .cls-9, .cls-10, .cls-12, .cls-13 {
        stroke: #231f20;
      }

      .cls-3 {
        fill: #58595b;
      }

      .cls-4 {
        fill: #d0d2d3;
      }

      .cls-5 {
        fill: #bbbdbf;
      }

      .cls-6 {
        stroke: #ed5c9b;
      }

      .cls-6, .cls-7 {
        fill: #f18dbc;
      }

      .cls-8 {
        fill: #f1f1f2;
      }

      .cls-9 {
        fill: #fff;
      }

      .cls-10 {
        fill: #e6e7e8;
      }

      .cls-11 {
        fill: #ed5c9b;
        stroke: #e0218a;
      }

      .cls-12 {
        fill: none;
      }

      .cls-13 {
        fill: #c4fff9;
        opacity: .5;
      }
    </style>
  </defs>
  <g id="washer">
    <rect class="cls-7" x="107.43" y="100.16" width="50.22" height="71.65"/>
    <rect class="cls-3" x="113.51" y="106.44" width="39.19" height="3.15"/>
    <path class="cls-8" d="m150.41,88.41c-2.99.8-7.18,1.51-11.08,1.93-2.56.27-4.6.38-6.8.39-2.19,0-4.23-.11-6.8-.39-3.9-.42-8.09-1.13-11.08-1.93h-7.23v11.75h7.23c3.4.71,7.03,1.32,11.08,1.72,2.37.24,4.64.38,6.8.46h0c2.16-.08,4.43-.22,6.8-.46,4.05-.4,7.68-1.01,11.08-1.72h7.23v-11.75h-7.23Z"/>
  </g>
  <g id="turkey">
    <polygon class="cls-2" points="100.41 127.95 82.09 127.95 80.8 127.95 63.99 127.95 57.29 139.39 80.8 139.39 82.09 139.39 107.11 139.39 100.41 127.95"/>
    <ellipse class="cls-11" cx="82.66" cy="133.36" rx="18.74" ry="4.48"/>
    <path class="cls-1" d="m95.95,132.08c-1.87,1.94-4.63,1.82-8.89,1.88-8.14.11-9.68.72-14.28-.16-4.03-.77-5.42-1.73-5.76-2.9-.18-.62-.05-1.28.45-2.32,1.87-3.87,5.44-5.88,5.87-6.12,5.8-3.17,11.74-1.62,12.56-1.39,2.11.59,3.99,1.92,7.75,4.57,2.22,1.57,3.43,2.67,3.43,4.08,0,1.16-.82,2.03-1.14,2.37Z"/>
    <path class="cls-1" d="m99.31,127.53c-1.07-.97-2.28,0-5.07-.37-2.5-.34-2.61-1.27-4.88-1.38-.73-.03-3.67-.17-4.51,1.47-.6,1.17.08,2.83.92,3.78,1.93,2.17,6.17,2.29,8.57.74.74-.48,1.15-1.02,2.21-1.29,1.69-.43,2.77.39,3.32-.18.51-.54.28-2.01-.55-2.76Z"/>
    <path class="cls-1" d="m74.81,130.11c1.02.82,1.71,1.76,1.47,2.3-.31.7-2.09.55-3.22.18-1.11-.36-2.95-1.39-3.04-2.76-.12-1.8,2.77-3.46,5.16-3.68,2.42-.23,3.44.84,4.05,1.3-.26-.09-.93-.38-2.48.45-1.32.71-1.81,1.89-1.93,2.21Z"/>
  </g>
  <g id="oven">
    <rect class="cls-8" x="57.21" y="88.41" width="50.33" height="11.75"/>
    <rect class="cls-13" x="57.22" y="100.16" width="50.32" height="48.75"/>
    <rect class="cls-12" x="57.21" y="100.16" width="50.32" height="48.75"/>
    <polygon class="cls-4" points="150.01 171.81 150.01 167.41 114.19 167.41 114.19 171.81 107.43 171.81 107.43 175.63 57.22 175.63 57.22 198.56 157.65 198.56 157.65 180.92 157.65 175.63 157.65 171.81 150.01 171.81"/>
    <polygon class="cls-8" points="102.23 148.91 102.23 143.56 62.53 143.56 62.53 148.91 57.22 148.91 57.22 175.63 107.54 175.63 107.54 148.91 102.23 148.91"/>
    <rect class="cls-3" x="63.18" y="108.01" width="38.4" height="2.95"/>
    <rect class="cls-3" x="75.01" y="92.03" width="14.92" height="4.46"/>
    <circle class="cls-3" cx="94.27" cy="94.26" r="2.23"/>
    <circle class="cls-3" cx="100.85" cy="94.29" r="2.23"/>
    <circle class="cls-3" cx="64.09" cy="94.29" r="2.23"/>
    <circle class="cls-3" cx="70.67" cy="94.29" r="2.23"/>
  </g>
  <g id="fridge">
    <rect class="cls-9" x="1" y="7.07" width="56.4" height="140.75"/>
    <rect class="cls-8" x="1" y="7.07" width="56.4" height="10.87"/>
    <rect class="cls-9" x="1" y="147.82" width="56.4" height="27.81"/>
    <rect class="cls-10" x="1" y="175.63" width="56.4" height="10.57"/>
    <rect class="cls-4" x="1" y="186.2" width="56.4" height="12.35"/>
    <rect class="cls-6" x="48.11" y="38.2" width="2.64" height="89.57"/>
    <rect class="cls-10" x="8.5" y="151.26" width="41.41" height="3.52"/>
    <circle class="cls-6" cx="49.43" cy="121.75" r="2.95"/>
    <circle class="cls-6" cx="49.43" cy="44.07" r="2.95"/>
    <polygon class="cls-4" points="64.71 1.44 57.21 7.07 1 7.07 8.5 1.44 64.71 1.44"/>
    <polygon class="cls-10" points="57.4 6.78 57.4 85.87 64.09 74.91 64.76 1.44 57.4 6.78"/>
  </g>
  <g id="counter">
    <path class="cls-5" d="m159.08,86.35c-.27-.13-.56-.2-.85-.2h-7.7c-4.45,1.08-8.23,1.63-11.08,1.93-3.64.38-6.18.39-6.8.39s-3.16,0-6.8-.39c-2.85-.29-6.63-.84-11.08-1.93h-57.37v2.31h57.37c4.45,1.08,8.23,1.63,11.08,1.93,3.64.38,6.18.39,6.8.39s3.16,0,6.8-.39c2.85-.29,6.63-.84,11.08-1.93h7.65c.33,0,.65-.08.94-.25h.01c.74-.42.71-1.49-.05-1.87Z"/>
    <path class="cls-4" d="m57.4,86.15h57.45c4.45,1.08,8.23,1.63,11.08,1.93,3.64.38,6.18.39,6.8.39s3.16,0,6.8-.39c2.85-.29,6.63-.84,11.08-1.93h8.19l-6.83-11.24h-87.87l-6.69,11.24Z"/>
    <path class="cls-5" d="m147.16,77.19h-29.23l-3.26,6.66c4.45,1.08,8.23,1.63,11.08,1.93,3.64.38,6.18.39,6.8.39s3.16,0,6.8-.39c2.85-.29,6.63-.84,11.08-1.93l-3.26-6.66Z"/>
  </g>
  <g id="faucet">
    <path class="cls-5" d="m132.76,73.72c-.29-.97-.25-3.38-.25-3.38-.28.22-.52.34-.96.37-.43-.02-.7-.16-.96-.37,0,0,.04,2.4-.25,3.38-.29.97-.71,1.47-.71,1.47,0,.33.86.59,1.91.59s1.91-.26,1.91-.59c0,0-.42-.5-.71-1.47Z"/>
    <g id="Layer_9" data-name="Layer 9">
      <path class="cls-5" d="m135.11,62.69c-.14-.71-.19-1.18-.58-1.48-.36-.28-.83-.28-1.15-.24-.32.05-.77.19-1.03.56-.28.4-.2.86-.13,1.59.05.56.09,1.35.05,2.32.26.11.61.22,1.02.28.29.04.56.05.78.04.22-.06.47-.14.74-.26.38-.18.68-.38.9-.56-.32-.92-.5-1.69-.61-2.24Z"/>
    </g>
    <path class="cls-5" d="m132.02,70.93h-1.06v-11.12c0-1.78.18-2.06.47-2.43.2-.26.52-.44.95-.35.96.2,1.41,1.55,1.67,3.64-.32.12-.63.23-.95.35-.04-.69-.05-1.26-.15-1.62-.11-.41-.36-1.21-.65-1.19-.37.03-.34,1.3-.35,1.41.02,3.77.04,7.54.06,11.31Z"/>
  </g>
</svg>