<?xml version="1.0" encoding="UTF-8"?>
<svg id="window" xmlns="http://www.w3.org/2000/svg" viewBox="0 0 250 250">
  <defs>
    <style>
      .cls-1 {
        fill: #bbbdbf;
      }
    </style>
  </defs>
  <path class="cls-1" d="m153.18,46.16c-7.96,0-14.81-2.78-17.09-5.92h-.01c-2.33-2.74-6.41-4.56-11.07-4.56-4.66,0-8.74,1.82-11.07,4.56h-.01c-2.28,3.13-9.13,5.92-17.09,5.92-.7,0-1.4-.02-2.08-.06v157.79c.68-.03,1.38-.06,2.08-.06,7.96,0,14.81,2.78,17.09,5.92h.01c2.33,2.74,6.41,4.56,11.07,4.56,4.66,0,8.74-1.82,11.07-4.56h.01c2.28-3.13,9.13-5.92,17.09-5.92.7,0,1.4.02,2.08.06V46.1c-.68.03-1.38.06-2.08.06Z"/>
</svg>