<?xml version="1.0" encoding="UTF-8"?>
<svg id="closet" xmlns="http://www.w3.org/2000/svg" viewBox="0 0 200 200">
  <defs>
    <style>
      .cls-1 {
        fill: #f1f1f2;
      }

      .cls-1, .cls-2 {
        stroke: #e0218a;
        stroke-linecap: round;
        stroke-linejoin: round;
      }

      .cls-2 {
        fill: #ed5c9b;
      }
    </style>
  </defs>
  <path class="cls-2" d="m111.65,28.28c-5.74,0-10.69-2.53-12.33-5.38h-.01c-1.68-2.49-4.63-4.15-7.99-4.15-3.36,0-6.31,1.66-7.99,4.15h-.01c-1.64,2.85-6.59,5.38-12.33,5.38-.51,0-1.01-.02-1.5-.05v143.54c.49-.03.99-.05,1.5-.05,5.74,0,10.69,2.53,12.33,5.38h.01c1.68,2.49,4.63,4.15,7.99,4.15,3.36,0,6.31-1.66,7.99-4.15h.01c1.64-2.85,6.59-5.38,12.33-5.38.51,0,1.01.02,1.5.05V28.23c-.49.03-.99.05-1.5.05Z"/>
  <path class="cls-1" d="m91.32,31.03c-7.44,0-13.47,1.92-13.47,4.28v121.92c0,2.36,6.03,4.28,13.47,4.28s13.47-1.92,13.47-4.28V35.31c0-2.36-6.03-4.28-13.47-4.28Z"/>
</svg>