<?xml version="1.0" encoding="UTF-8"?>
<svg id="closet" xmlns="http://www.w3.org/2000/svg" viewBox="0 0 200 200">
  <defs>
    <style>
      .cls-1 {
        fill: #f18dbc;
      }

      .cls-1, .cls-2, .cls-3 {
        stroke: #e0218a;
        stroke-linecap: round;
        stroke-linejoin: round;
      }

      .cls-2, .cls-4 {
        fill: #ed5c9b;
      }

      .cls-3 {
        fill: #facde5;
      }

      .cls-4 {
        stroke: #ed5c9b;
        stroke-miterlimit: 10;
      }
    </style>
  </defs>
  <path class="cls-3" d="m91.32-.23c-17.05,0-30.87,9.93-30.87,17.97v182.03h61.75V17.75C122.19,9.71,108.37-.23,91.32-.23Zm28.1,197.27h-56.21V18.64c0-7.32,12.58-16.36,28.1-16.36s28.1,9.04,28.1,16.36v178.41Z"/>
  <path class="cls-1" d="m91.32,2.28c-15.52,0-28.1,9.04-28.1,16.36v178.41h56.21V18.64c0-7.32-12.58-16.36-28.1-16.36Zm24.18,150.79h-48.37V18.43c0-5.95,10.66-12.41,24.01-12.41s24.35,6.46,24.35,12.41v134.63Z"/>
  <path class="cls-2" d="m91.15,6.03c-13.36,0-24.01,6.46-24.01,12.41v134.63h48.37V18.43c0-5.95-11-12.41-24.35-12.41Zm19.18,142.79h-38.02V22.01c0-5.6,8.51-10.14,19.01-10.14s19.01,4.54,19.01,10.14v126.81Z"/>
  <path class="cls-4" d="m90.91,98.46c1.31,0,2.29-.29,2.94-.85s.98-1.29.98-2.15c0-.76-.25-1.38-.76-1.87s-1.29-.89-2.34-1.2l-2.4-.73c-.97-.3-1.81-.66-2.53-1.11-.72-.44-1.28-1-1.68-1.68-.4-.67-.6-1.49-.6-2.44,0-1.67.61-2.98,1.85-3.94,1.24-.96,2.89-1.44,4.98-1.44,1.16,0,2.2.12,3.12.36.92.24,1.63.57,2.15.97.51.4.77.85.77,1.36,0,.34-.08.64-.25.9s-.39.48-.66.65c-.5-.4-1.19-.75-2.05-1.04-.87-.29-1.82-.44-2.85-.44-1.14,0-2.04.24-2.69.71-.65.47-.98,1.11-.98,1.91,0,.63.23,1.14.7,1.53s1.19.73,2.18,1.03l1.87.57c1.75.51,3.12,1.22,4.09,2.14.98.92,1.47,2.17,1.47,3.75,0,1.71-.63,3.09-1.9,4.14-1.27,1.06-3.06,1.58-5.38,1.58-1.29,0-2.42-.14-3.4-.43-.98-.28-1.75-.65-2.29-1.11-.55-.45-.82-.94-.82-1.47,0-.42.13-.77.38-1.06s.54-.5.85-.65c.53.46,1.23.91,2.1,1.35s1.93.65,3.15.65Z"/>
  <path class="cls-4" d="m110.33,33.53v-11.52c0-5.6-8.51-10.14-19.01-10.14s-19.01,4.54-19.01,10.14v11.52h16.5v19.4h-16.5v4.57h16.5v14.79c-5.48.69-10.24,3.71-13.24,8.05h-3.26v8.79c-.07.66-.11,1.32-.11,1.99s.04,1.34.11,1.99v7.15h2.24c2.87,5.21,8.1,8.91,14.26,9.69v15.07h-16.5v4.38h16.5v19.4h5.02v-19.4h16.5v-4.38h-16.5v-15.11c6.06-.84,11.21-4.51,14.04-9.66h2.45v-19.94h-3.47c-2.96-4.28-7.63-7.27-13.02-8.02v-14.82h16.5v-4.57h-16.5v-19.4h16.5Zm-17.32,72.49c-.11.01-.21.03-.32.04-.47.05-.94.07-1.42.07-.84,0-1.66-.09-2.46-.22v.02c-3.84-.62-7.19-2.69-9.47-5.65h.11c-1.95-2.53-3.13-5.7-3.13-9.15,0-4.24,1.76-8.06,4.59-10.79h-.11c2.15-2.08,4.92-3.51,8.01-4.01v.02c.8-.14,1.62-.22,2.46-.22.48,0,.95.03,1.42.07.11.01.22.03.33.04,7.44.89,13.21,7.21,13.21,14.89s-5.77,14-13.22,14.89Z"/>
</svg>