<?xml version="1.0" encoding="utf-8"?>
<!-- Generator: Adobe Illustrator 26.5.3, SVG Export Plug-In . SVG Version: 6.00 Build 0)  -->
<svg version="1.1" id="Layer_1" xmlns="http://www.w3.org/2000/svg" xmlns:xlink="http://www.w3.org/1999/xlink" x="0px" y="0px"
	 viewBox="0 0 400 125.11" style="enable-background:new 0 0 400 125.11;" xml:space="preserve">
<style type="text/css">
	.st0{fill:#8D4670;}
	.st1{fill:#A97C50;}
	.st2{fill:#7CCFDD;}
	.st3{fill:#C49A6C;}
	.st4{fill:#7CCFDD;stroke:#C49A6C;stroke-width:1.4558;stroke-miterlimit:10;}
</style>
<polygon class="st0" points="200.15,0.57 0.49,125.34 399.81,125.34 "/>
<polygon class="st1" points="0.49,125.34 63.13,86.37 335.47,85.54 399.81,125.34 "/>
<g>
	<path class="st2" d="M202.01,60.26c-6.98,0-12.65-5.68-12.65-12.65c0-6.98,5.68-12.65,12.65-12.65c6.98,0,12.65,5.68,12.65,12.65
		C214.66,54.58,208.99,60.26,202.01,60.26z"/>
	<path class="st3" d="M202.01,35.68c6.59,0,11.93,5.34,11.93,11.93c0,6.59-5.34,11.93-11.93,11.93s-11.93-5.34-11.93-11.93
		C190.09,41.02,195.42,35.68,202.01,35.68 M202.01,34.23c-7.38,0-13.38,6-13.38,13.38c0,7.38,6,13.38,13.38,13.38
		s13.38-6,13.38-13.38C215.39,40.23,209.39,34.23,202.01,34.23L202.01,34.23z"/>
</g>
<line class="st4" x1="202.01" y1="35.68" x2="202.01" y2="59.53"/>
<line class="st4" x1="190.09" y1="47.61" x2="213.94" y2="47.61"/>
</svg>
