<?xml version="1.0" encoding="utf-8"?>
<!-- Generator: Adobe Illustrator 26.5.3, SVG Export Plug-In . SVG Version: 6.00 Build 0)  -->
<svg version="1.1" id="Layer_1" xmlns="http://www.w3.org/2000/svg" xmlns:xlink="http://www.w3.org/1999/xlink" x="0px" y="0px"
	 viewBox="0 0 400 126.64" style="enable-background:new 0 0 400 126.64;" xml:space="preserve">
<style type="text/css">
	.st0{fill:#A6176B;}
	.st1{fill:url(#SVGID_1_);}
	.st2{fill:none;stroke:#A88465;stroke-width:1.5;stroke-miterlimit:10;}
	.st3{fill:none;stroke:#A88465;stroke-miterlimit:10;}
	.st4{fill:none;stroke:#A88465;stroke-width:0.75;stroke-miterlimit:10;}
	.st5{fill:#851256;}
	.st6{fill:#9FE2ED;}
	.st7{fill:#C49A6C;}
	.st8{fill:#90CCD6;}
	.st9{fill:none;stroke:#C49A6C;stroke-width:2.2086;stroke-miterlimit:10;}
	.st10{fill:none;stroke:#C49A6C;stroke-width:2.1937;stroke-miterlimit:10;}
	.st11{fill:#FFF0F8;}
</style>
<polygon class="st0" points="399.81,126.87 0.49,126.87 63.13,87.9 335.47,87.07 "/>
<linearGradient id="SVGID_1_" gradientUnits="userSpaceOnUse" x1="200.15" y1="126.8719" x2="200.15" y2="87.0719">
	<stop  offset="7.458905e-08" style="stop-color:#BF9978"/>
	<stop  offset="0.5908" style="stop-color:#C09975"/>
	<stop  offset="0.9915" style="stop-color:#C49A6C"/>
	<stop  offset="1" style="stop-color:#C49A6C"/>
</linearGradient>
<polygon class="st1" points="399.81,126.87 0.49,126.87 63.13,87.9 63.31,87.9 92.59,87.81 306.23,87.16 335.03,87.07 335.47,87.07 
	"/>
<line class="st2" x1="199.15" y1="87.66" x2="193.19" y2="126.81"/>
<line class="st2" x1="210.72" y1="87.83" x2="233.36" y2="126.47"/>
<line class="st2" x1="221.79" y1="87.49" x2="273.87" y2="126.64"/>
<line class="st3" x1="232.68" y1="87.49" x2="313.87" y2="126.81"/>
<line class="st3" x1="353.53" y1="126.81" x2="244.26" y2="87.32"/>
<line class="st3" x1="393.53" y1="126.81" x2="256.85" y2="87.32"/>
<line class="st4" x1="378.55" y1="113.53" x2="267.23" y2="87.49"/>
<line class="st4" x1="363.74" y1="104.68" x2="280" y2="87.49"/>
<line class="st4" x1="355.23" y1="99.06" x2="295.32" y2="87.15"/>
<line class="st4" x1="349.11" y1="95.32" x2="316.43" y2="87.66"/>
<line class="st2" x1="188.09" y1="87.83" x2="152.51" y2="126.81"/>
<line class="st3" x1="176.51" y1="87.66" x2="112.17" y2="126.64"/>
<line class="st3" x1="164.6" y1="87.66" x2="72.68" y2="126.81"/>
<line class="st3" x1="152.85" y1="88" x2="31.66" y2="126.64"/>
<line class="st4" x1="142.98" y1="88" x2="6.98" y2="122.72"/>
<line class="st4" x1="131.23" y1="87.83" x2="27.23" y2="109.79"/>
<line class="st4" x1="118.81" y1="88" x2="39.49" y2="102.64"/>
<line class="st4" x1="103.66" y1="87.66" x2="47.66" y2="97.02"/>
<line class="st4" x1="82.72" y1="88" x2="57.19" y2="91.23"/>
<polygon class="st0" points="399.81,126.87 398.05,125.78 335.47,87.07 307.74,87.15 91.91,87.81 91.4,87.81 63.13,87.9 
	12.21,119.58 1.77,126.08 0.49,126.87 1.76,126.07 37.68,103.63 189.88,8.51 200.15,2.1 209.91,8.2 398.06,125.77 "/>
<path class="st5" d="M220.31,52.12c0,11.02-8.97,20-20.01,20c-11.04,0-20.01-8.98-20.01-20c0-0.06,0-0.11,0.01-0.17
	c0.85,10.28,9.49,18.38,19.99,18.38c10.57,0,19.26-8.21,20.01-18.59C220.31,51.87,220.31,51.99,220.31,52.12z"/>
<g>
	<g>
		<path class="st6" d="M200.13,70.05c-10.47,0-18.97-8.52-18.97-18.97c0-10.47,8.52-18.97,18.97-18.97
			c10.47,0,18.97,8.52,18.97,18.97C219.11,61.53,210.6,70.05,200.13,70.05z"/>
		<path class="st7" d="M200.13,31.01c-11.07,0-20.07,8.99-20.07,20.06c0,0.57,0.02,1.13,0.08,1.69
			c0.85,10.28,9.49,18.38,19.99,18.38c10.57,0,19.26-8.21,20.01-18.59c0.04-0.49,0.06-0.98,0.06-1.48
			C220.2,40,211.2,31.01,200.13,31.01z M200.13,68.97c-9.88,0-17.89-8.01-17.89-17.9c0.01-9.88,8.01-17.89,17.89-17.89
			s17.89,8.01,17.89,17.89C218.02,60.96,210.01,68.97,200.13,68.97z"/>
	</g>
	<path class="st8" d="M217.88,53.38l-35.49-0.02c-0.1-0.72-0.14-1.45-0.14-2.18h35.77C218,51.98,217.96,52.73,217.88,53.38z"/>
	<line class="st9" x1="181.83" y1="51.08" x2="218.43" y2="51.08"/>
	<path class="st8" d="M182.27,49.98c0.22-9.54,9.2-16.96,17.87-16.84c5.81-0.41,17.18,4.76,17.85,16.76
		c-1.56-7.98-8.94-15.96-17.84-15.32C187.34,33.63,182.57,47.96,182.27,49.98z"/>
	<line class="st10" x1="200.13" y1="32.85" x2="200.13" y2="68.96"/>
</g>
<path class="st11" d="M207.76,8.13c0.02,0.42,0.01,0.83-0.03,1.25c-0.25,2.89-1.75,5.58-4.3,7.18c-0.38,0.24-0.78,0.44-1.18,0.62
	c-0.9,0.39-1.84,0.63-2.79,0.72c-0.74,0.08-1.49,0.06-2.23-0.05c-0.01,0-0.01,0-0.02,0c-0.43-0.06-0.85-0.15-1.27-0.27h-0.01
	c-0.92-0.25-1.8-0.65-2.63-1.16c0.02,0.21,0.04,0.43,0.05,0.64v0.14c0.01,0.17,0.01,0.33,0,0.49c-0.04,3.16-1.58,6.16-4.34,7.9
	c-3.14,1.97-7.05,1.78-10.13-0.14c0.39,3.61-1.15,7.2-4.29,9.17c-3.14,1.96-7.05,1.78-10.13-0.14c0.39,3.61-1.15,7.2-4.29,9.17
	c-3.14,1.96-7.05,1.78-10.13-0.14c0.39,3.6-1.15,7.2-4.29,9.17c-3.14,1.96-7.05,1.78-10.13-0.14c0.39,3.6-1.15,7.2-4.29,9.17
	c-3.14,1.96-7.05,1.78-10.13-0.14c0.39,3.6-1.15,7.2-4.29,9.17c-3.14,1.96-7.05,1.78-10.13-0.14c0.39,3.6-1.15,7.2-4.29,9.16
	c-3.14,1.97-7.05,1.79-10.13-0.13c0.31,2.88-0.61,5.76-2.61,7.8c-0.13,0.13-0.26,0.26-0.39,0.38c-0.39,0.36-0.82,0.69-1.29,0.98
	c-3.14,1.97-7.05,1.79-10.12-0.13c0.38,3.6-1.16,7.2-4.3,9.16c-3.14,1.97-7.05,1.78-10.12-0.14c0.38,3.61-1.16,7.21-4.3,9.17
	c-3.14,1.97-7.05,1.78-10.12-0.14c0.38,3.61-1.16,7.2-4.3,9.17c-3.14,1.97-7.05,1.78-10.12-0.14c0.38,3.61-1.16,7.2-4.3,9.17
	c-3.14,1.97-7.05,1.78-10.12-0.14c0.07,0.71,0.08,1.41,0.01,2.1H0.22l-0.49-0.79l-0.01-0.01l-0.18-0.29l10.51-6.58l25.47-15.95
	L60.08,87.9l124.35-77.71l0.71-0.44V9.74l2.71-1.69l8.89-5.55l3.75-2.35C200.49,0.15,207.76,8.04,207.76,8.13z"/>
<path class="st11" d="M399.93,126.88l-0.1,0.06l-20.33-0.06c-0.09-0.76-0.15-1.77-0.07-2.55c-3.08,1.92-6.98,2.1-10.12,0.13
	c-3.14-1.96-4.68-5.56-4.3-9.16c-3.08,1.92-6.98,2.1-10.12,0.13c-3.14-1.96-4.68-5.56-4.3-9.16c-3.08,1.92-6.98,2.1-10.12,0.14
	c-3.14-1.97-4.68-5.57-4.3-9.17c-3.08,1.92-6.98,2.1-10.12,0.14c-3.14-1.97-4.68-5.57-4.3-9.17c-3.07,1.92-6.98,2.1-10.12,0.14
	c-0.65-0.41-1.23-0.88-1.74-1.42c-0.04-0.04-0.08-0.08-0.11-0.12c-1.87-2.03-2.74-4.83-2.45-7.63c-3.07,1.92-6.98,2.1-10.12,0.14
	c-3.14-1.97-4.68-5.56-4.3-9.17c-3.07,1.92-6.98,2.11-10.12,0.14c-3.14-1.97-4.68-5.56-4.3-9.17c-3.07,1.92-6.98,2.11-10.12,0.14
	c-3.14-1.97-4.68-5.56-4.3-9.17c-3.07,1.92-6.98,2.11-10.12,0.14c-3.14-1.97-4.68-5.56-4.3-9.17c-3.07,1.92-6.98,2.11-10.12,0.14
	c-3.14-1.96-4.68-5.56-4.3-9.17c-3.07,1.92-6.98,2.11-10.12,0.14c-3.14-1.96-4.68-5.56-4.3-9.17c-3.07,1.93-6.98,2.11-10.12,0.14
	c-2.65-1.65-4.16-4.47-4.34-7.47c-0.01-0.28-0.02-0.55-0.02-0.83c0.01-0.28,0.03-0.57,0.06-0.86c-1.11,0.69-2.32,1.16-3.56,1.37
	c-0.51,0.09-1.01,0.15-1.52,0.16c-0.01,0-0.01,0-0.02,0c-0.35,0-0.7-0.01-1.05-0.05c-0.96-0.09-1.91-0.33-2.81-0.74
	c-0.4-0.17-0.78-0.37-1.16-0.61c-0.31-0.19-0.6-0.4-0.88-0.63c-1.86-1.5-3.02-3.65-3.36-5.97c-0.06-0.44-0.1-0.89-0.11-1.34
	c0-0.15,0-0.31,0.01-0.46l8.56-7.63c0,0,11.35,7.62,11.35,7.71l0.11,0.07L399.93,126.88z"/>
</svg>
