<?xml version="1.0" encoding="utf-8"?>
<!-- Generator: Adobe Illustrator 26.5.3, SVG Export Plug-In . SVG Version: 6.00 Build 0)  -->
<svg version="1.1" id="Layer_1" xmlns="http://www.w3.org/2000/svg" xmlns:xlink="http://www.w3.org/1999/xlink" x="0px" y="0px"
	 viewBox="0 0 141.5 300" style="enable-background:new 0 0 141.5 300;" xml:space="preserve">
<style type="text/css">
	.st0{fill:#FFFFFF;}
	.st1{fill:#3DCCC7;}
	.st2{fill:#7DDEDC;}
	.st3{fill:#ED2284;}
</style>
<g>
	<rect y="247.4" class="st0" width="141.6" height="53.5"/>
	<rect x="0" class="st1" width="141.2" height="247.4"/>
	<polygon class="st2" points="141.3,0.1 126.3,0.1 126,248.1 141.5,266.5 	"/>
	<polygon class="st3" points="93.6,288.6 138.5,288.5 141.4,292.2 141.4,300.5 96.8,300.5 	"/>
	<polygon class="st3" points="51.2,275.6 89.9,275.6 93.6,288.6 48.3,288.5 	"/>
	<polygon class="st3" points="87.5,266 121.3,266 128.4,275.6 89.9,275.6 	"/>
	<polygon class="st3" points="48.3,288.5 45.5,300.6 0.1,300.5 0.2,292.4 3.2,288.3 	"/>
	<polygon class="st3" points="53.6,266.1 19.7,265.9 12.7,275.4 51.2,275.6 	"/>
	<polygon class="st3" points="87.5,266 85.3,258.5 55.3,258.6 53.6,266.1 	"/>
	<polygon class="st3" points="85.3,258.5 83.8,252.4 110.5,252.6 115.2,258.4 	"/>
	<polygon class="st3" points="55.2,258.3 56.6,252.6 29.6,252.6 25.4,258.5 	"/>
	<polygon class="st3" points="57.8,247.6 82.3,247.7 83.8,252.4 56.7,252.4 	"/>
	<polygon class="st3" points="138.5,288.5 128.4,275.6 141.4,275.5 141.4,288.4 	"/>
	<polygon class="st3" points="140.9,265.7 134.6,258.4 115.2,258.4 121.4,266 	"/>
	<polygon class="st3" points="130,252.6 125.9,247.4 106,247.4 110.5,252.6 	"/>
	<polygon class="st3" points="12.7,275.4 0.1,275.4 0.1,288.3 3.2,288.3 	"/>
	<polygon class="st3" points="19.7,265.9 25.4,258.5 0.2,258.6 0.1,265.9 	"/>
	<polygon class="st3" points="29.6,252.6 33.7,247.4 16.9,247.5 11.9,252.6 	"/>
	<polygon class="st2" points="0,0.1 16.4,0.1 16.8,247.4 0.1,265.8 	"/>
</g>
</svg>
