<?xml version="1.0" encoding="UTF-8"?>
<svg id="bathroom_counter" data-name="bathroom counter" xmlns="http://www.w3.org/2000/svg" viewBox="0 0 200 200">
  <defs>
    <style>
      .cls-1 {
        fill: #8a5d3b;
      }

      .cls-1, .cls-2, .cls-3 {
        stroke: #603813;
      }

      .cls-1, .cls-2, .cls-3, .cls-4, .cls-5, .cls-6, .cls-7, .cls-8, .cls-9 {
        stroke-linecap: round;
        stroke-linejoin: round;
      }

      .cls-2 {
        fill: #754c28;
      }

      .cls-3 {
        fill: #a87c4f;
      }

      .cls-4 {
        stroke: #ed5c9b;
      }

      .cls-4, .cls-5 {
        fill: #f18dbc;
      }

      .cls-5, .cls-6 {
        stroke: #e0218a;
      }

      .cls-6 {
        fill: #ed5c9b;
      }

      .cls-7 {
        fill: #929497;
        stroke: #6d6e70;
      }

      .cls-8 {
        fill: none;
        stroke: #069d98;
      }

      .cls-9 {
        fill: #facde5;
        stroke: #f7b9d7;
      }

      .cls-10 {
        fill: #c4fff9;
        opacity: .5;
      }
    </style>
  </defs>
  <g id="cabinet">
    <g id="cabinet-2" data-name="cabinet">
      <path class="cls-4" d="m101.23,185.07v-20.24c-11.2,10.87-34.16,10.05-34.16,10.05v7.26l34.16,2.92Z"/>
      <polygon class="cls-4" points="4.92 51.17 4.92 110.95 4.92 129.96 4.92 195.16 55.99 199.51 55.99 141.1 55.99 122.09 55.99 56.89 4.92 51.17"/>
      <path class="cls-4" d="m55.99,56.89v142.62l11.15-3.44v-21.19s22.96.81,34.16-10.05v20.24l9.56-3.13V39.41l-54.87,17.48Z"/>
    </g>
    <g id="detail">
      <polygon class="cls-6" points="62.47 74.5 62.47 102.59 104.83 89.03 104.83 60.94 62.47 74.5"/>
      <polygon class="cls-6" points="62.47 106.54 62.47 134.61 104.83 121.04 104.83 92.72 62.47 106.54"/>
      <polygon class="cls-6" points="62.47 166.27 62.47 138.29 104.83 124.73 104.83 152.71 62.47 166.27"/>
      <circle class="cls-7" cx="46.51" cy="63.42" r="3.7"/>
      <ellipse class="cls-5" cx="86.66" cy="81.76" rx="3.01" ry="3.7"/>
      <ellipse class="cls-5" cx="86.66" cy="114.75" rx="3.01" ry="3.7"/>
      <ellipse class="cls-5" cx="86.66" cy="147.1" rx="3.01" ry="3.7"/>
      <path class="cls-7" d="m47.46,63h0c-.55-.78-1.62-.97-2.41-.42l-3.73,2.61h-8.52v1.06c0,1.32,1.07,2.39,2.39,2.39h6.56v-.03c.46-.01.91-.15,1.32-.43l3.96-2.77c.78-.55.97-1.62.42-2.41Z"/>
      <path class="cls-9" d="m2.52,58.81v43.78h0c.02,2.44,2,4.41,4.45,4.41,2.31,0,4.18-1.76,4.41-4.01l.48.02c0,.09-.03.17-.03.25,0,2.46,1.99,4.45,4.45,4.45s4.36-1.91,4.44-4.3l.45.02c0,.1-.03.19-.03.29,0,2.46,1.99,4.45,4.45,4.45s4.38-1.93,4.44-4.34l.46.02c-.01.14-.04.27-.04.4,0,2.46,1.99,4.45,4.45,4.45s4.45-1.99,4.45-4.45v-41.55l-36.85-3.92Z"/>
    </g>
    <g id="counter_top" data-name="counter top">
      <polygon class="cls-2" points="57.75 58.42 .57 52.18 .57 46.69 57.75 52.93 57.75 58.42"/>
      <polygon class="cls-1" points="57.75 58.42 114.92 42.08 114.92 36.59 57.75 52.93 57.75 58.42"/>
      <g id="Layer_29" data-name="Layer 29">
        <polygon class="cls-3" points=".57 46.69 57.75 30.31 114.92 36.59 57.75 52.93 .57 46.69"/>
      </g>
    </g>
  </g>
  <g id="Layer_33" data-name="Layer 33">
    <g id="Layer_34" data-name="Layer 34">
      <path class="cls-7" d="m31.67,40.37c.77-.8,1.84-2.08,2.63-3.88,1.13-2.56,1.13-4.81,1.11-6.84-.11-9.11-.34-11.91-.34-11.91-.28-3.34-.66-7.48-1.19-12.25-1.09.31-2.17.14-2.72-.51-.96-1.12-.05-3.36,1.19-3.91,1.13-.51,1.9.66,4.08,1.02,1.84.3,2.14-.39,5.78-1.02,2.95-.51,5.71-.96,7.14.51.5.51.93,1.34.68,1.7-.27.38-1.2.05-2.38-.17-2.17-.4-3.87-.18-5.27,0-1.41.18-4.32.56-4.59,1.87-.06.27-.08.96,1.19,2.04,1.16-.45,2.89-.89,4.93-.68.98.1,4.97.52,6.8,3.74.87,1.52.9,3.07.85,3.91-.96.06-1.93.11-2.89.17.08-.45.33-2.1-.68-3.4-.95-1.22-2.44-1.39-3.74-1.53-2.39-.26-4.39.43-5.61,1.02.57,9.08.98,15.96,1.02,20.07,0,1.04,0,3.38,1.36,5.78.94,1.68,2.19,2.76,3.06,3.4-1.12.64-3.4,1.74-6.46,1.87-2.68.12-4.79-.55-5.95-1.02Z"/>
      <ellipse class="cls-10" cx="69.91" cy="18.26" rx="20.61" ry="3.02"/>
      <path class="cls-10" d="m69.91,21.31c-11.25,0-20.38-1.32-20.6-2.96.11,8.57,4.87,15.94,11.75,19.41h.04c.8.61,4.44,1.08,8.81,1.08s8.01-.46,8.81-1.08h.04c6.87-3.47,11.64-10.84,11.75-19.41-.22,1.64-9.36,2.96-20.6,2.96Z"/>
      <ellipse class="cls-8" cx="69.91" cy="18.26" rx="20.61" ry="3.02"/>
      <path class="cls-8" d="m69.91,21.31c-11.25,0-20.38-1.32-20.6-2.96.11,8.57,4.87,15.94,11.75,19.41h.04c.8.61,4.44,1.08,8.81,1.08s8.01-.46,8.81-1.08h.04c6.87-3.47,11.64-10.84,11.75-19.41-.22,1.64-9.36,2.96-20.6,2.96Z"/>
    </g>
  </g>
</svg>