<?xml version="1.0" encoding="UTF-8"?>
<svg id="bathtub" xmlns="http://www.w3.org/2000/svg" viewBox="0 0 250 250">
  <defs>
    <style>
      .cls-1 {
        fill: #bbbdbf;
      }
    </style>
  </defs>
  <path class="cls-1" d="m225.89,57.68c0-.15,0-.3,0-.45,0-14.22-8.03-25.75-17.94-25.75-9.19,0-16.77,9.93-17.81,22.71-18.47-1.09-41.07-1.73-65.49-1.73-62.32,0-112.83,4.18-112.83,9.34.19,3.53,1.35,23.69,4.82,39.21.31,1.38,1.27,6.13,4.37,13.63,1.76,4.26,3.09,6.58,4.58,8.63,2.22,3.05,4.42,4.97,5.9,6.24,2,1.73,5.45,4.31,9.58,5.86,3.14,1.18,7.56,2.34,10.4,2.94,20.98,4.44,42.56,3.86,73.19,3.86s52.22.58,73.19-3.86c2.84-.6,7.26-1.77,10.4-2.94,4.13-1.55,7.57-4.13,9.58-5.86,1.48-1.27,3.68-3.19,5.9-6.24,1.49-2.04,2.82-4.37,4.58-8.63,3.1-7.51,4.06-12.25,4.37-13.63,3.47-15.52,4.63-35.68,4.82-39.21,0-1.48-4.18-2.88-11.6-4.13Z"/>
</svg>