<?xml version="1.0" encoding="UTF-8"?>
<svg id="bathtub" xmlns="http://www.w3.org/2000/svg" viewBox="0 0 200 200">
  <defs>
    <style>
      .cls-1 {
        fill: #929497;
        stroke: #6d6e70;
        stroke-linecap: round;
        stroke-linejoin: round;
      }

      .cls-2 {
        fill: #fff;
      }

      .cls-2, .cls-3 {
        stroke: #231f20;
        stroke-miterlimit: 10;
      }

      .cls-3 {
        fill: #f1f1f2;
      }
    </style>
  </defs>
  <ellipse class="cls-3" cx="99.95" cy="135.93" rx="99.09" ry="7.31"/>
  <path class="cls-1" d="m190.13,140.73c-.62-.64-1.48-1.68-2.12-3.13-.91-2.06-.69-6.01-.68-7.65.09-7.35.27-9.6.27-9.6.23-2.69.54-6.03.96-9.88.88.25,1.75.11,2.19-.41.77-.91.04-2.71-.96-3.15-.91-.41-1.53.53-3.29.82-1.48.24-1.73-.31-4.66-.82-2.38-.41-4.6-.77-5.76.41-.4.41-.75,1.08-.55,1.37.22.31.97.04,1.92-.14,1.75-.33,3.12-.15,4.25,0,1.14.15,3.48.45,3.7,1.51.05.22.06.78-.96,1.65-.94-.36-2.33-.72-3.98-.55-.79.08-4.01.42-5.49,3.02-.7,1.23-.73,2.47-.69,3.15.78.05,1.55.09,2.33.14-.07-.36-.27-1.69.55-2.74.77-.99,1.96-1.12,3.02-1.23,1.93-.21,3.54.35,4.53.82-.46,7.32-.79,12.87-.82,16.19,0,.84-.23,4.86-1.32,6.8-.76,1.35-1.77,2.23-2.47,2.74.91.52,2.74,1.4,5.21,1.51,2.16.09,3.86-.45,4.8-.82Z"/>
  <path class="cls-2" d="m99.95,143.24c-54.72,0-99.09-3.27-99.09-7.31.17,2.77,1.18,18.55,4.23,30.71.27,1.08,1.12,4.8,3.84,10.68,1.54,3.33,2.71,5.16,4.02,6.75,1.95,2.39,3.88,3.89,5.18,4.89,1.76,1.35,4.79,3.38,8.41,4.59,2.76.92,6.64,1.83,9.13,2.3,18.42,3.48,37.38,3.02,64.27,3.02s45.85.45,64.27-3.02c2.49-.47,6.37-1.38,9.13-2.3,3.62-1.21,6.65-3.24,8.41-4.59,1.3-1,3.23-2.5,5.18-4.89,1.31-1.6,2.48-3.42,4.02-6.75,2.72-5.88,3.56-9.59,3.84-10.68,3.05-12.16,4.06-27.94,4.23-30.71,0,4.04-44.36,7.31-99.09,7.31Z"/>
</svg>