<?xml version="1.0" encoding="UTF-8"?>
<svg id="bed" xmlns="http://www.w3.org/2000/svg" viewBox="0 0 200 200">
  <defs>
    <style>
      .cls-1 {
        fill: #754c28;
      }

      .cls-1, .cls-2 {
        stroke: #603813;
        stroke-linecap: round;
        stroke-linejoin: round;
      }

      .cls-2 {
        fill: #facde5;
      }

      .cls-3 {
        fill: #f7b9d7;
      }

      .cls-4 {
        fill: #c4fff9;
      }

      .cls-5, .cls-6 {
        fill: #f18dbc;
      }

      .cls-5, .cls-6, .cls-7, .cls-8, .cls-9, .cls-10 {
        stroke-miterlimit: 10;
      }

      .cls-5, .cls-7, .cls-8 {
        stroke: #e0218a;
      }

      .cls-6, .cls-10 {
        stroke: #ed5c9b;
      }

      .cls-7 {
        fill: #fff;
      }

      .cls-8 {
        fill: #e0218a;
      }

      .cls-9 {
        stroke: #069d98;
      }

      .cls-9, .cls-10 {
        fill: none;
      }
    </style>
  </defs>
  <path class="cls-1" d="m174.87,67.99c-4.37,0-7.86-3.44-7.86-7.74,0-.05,0-.09,0-.14-13.61-9.24-38.55-15.43-67.09-15.43s-53.25,6.13-66.91,15.3c0,.09.01.18.01.27,0,4.3-3.6,7.74-7.97,7.74-.22,0-.38.03-.59.01h-2.72v119.39h156.5v-119.39h-2.68c-.22.02-.49-.01-.71-.01Z"/>
  <path class="cls-2" d="m170.76,71.88c-4.12,0-7.54-4.41-7.54-8.46,0-.04,0-.09,0-.13-12.84-8.71-36.37-14.55-63.29-14.55s-50.23,5.79-63.11,14.43c0,.08.01.17.01.25,0,4.06-3.26,8.46-7.39,8.46-.21,0-.49.04-.69.02h-2.56v111.44h147.62v-111.44h-2.53c-.2.02-.33-.02-.54-.02Z"/>
  <path class="cls-1" d="m28.58,139.07h142.86c10.67,0,19.33,8.66,19.33,19.33v41.02H9.24v-41.02c0-10.67,8.66-19.33,19.33-19.33Z"/>
  <path class="cls-7" d="m183.32,147.08l-16.59-21.26H30l-16.59,21.26h0c3.77-4.87,9.67-8.01,16.31-8.01h137.35c6.62,0,12.52,3.12,16.29,7.98"/>
  <path class="cls-6" d="m192.15,141.03s-1.45-2.76-2.47-4.11c-4.92-7.31-7.52-15.24-20.23-15.24h-12.48c-1.24,0-2.55,0-3.91,0-2.79.03-5.99.03-8.8,0h-30.76c-.92,0-1.84,0-2.76,0-4.38.02-9.55.03-14.12.01-.91,0-1.8,0-2.66-.01-9.81.03-19.4.03-28.76,0H27.8c-1.02,0-1.81,0-2.34,0-8.48,5.36-12.74,13.89-19.14,21.36,3.33-4,7.91-6.33,13.09-7.41,1.03-.22,2.09-.38,3.17-.5,8.65-.34,17.06.16,25.54.38,1.41.04,2.83.07,4.25.09,19-1.09,39.26-3.22,58.19-1.74,1.37.02,2.75.06,4.13.11,5.51.21,11.02.68,16.55,1.59,1.52.09,3.03.15,4.53.19,13.53.41,26.58-.23,40.4-.4,1.05.15,2.1.37,3.12.66,4.11,1.13,10.05,1.34,12.87,5.01Z"/>
  <path class="cls-6" d="m198.97,190.58c-10.46.45-22.38.45-32.75,0-1.91-.17-3.78-.32-5.64-.45-16.73-1.21-32.44-1.06-49.02.45-1.84.26-3.69.52-5.53.78-16.57,2.35-33.07,4.41-48.73-.87-1.84-.7-3.65-1.33-5.45-1.88-12.94-3.98-25-4.38-37.62-1.14-1.58.4-3.16.87-4.76,1.38-1.97,1.11-6.3,3.24-6.3,2.17-4.34-12.8-2.17-26.66-.27-40.95.49-1.75,1.2-3.4,2.11-4.93.45-.76.96-1.5,1.5-2.19,3.33-4.61,7.97-6.76,13.22-7.61,1.05-.17,2.13-.29,3.22-.37,8.79.33,17.34.8,26.03.88,1.45.01,2.9.01,4.36,0,20.29-.28,39.8-4.54,60.31-1.75,1.43.05,2.87.12,4.3.19,5.75.29,11.53.75,17.4,1.39,1.35.05,2.7.09,4.05.11,13.52.28,27.12-.37,39.9-.72,1.13.11,2.26.29,3.36.54,4.4,1,8.36,3.11,10.86,7.34.55.7,1.05,1.43,1.51,2.19,1.82,3.05,2.86,6.61,2.86,10.4,0,0,0,2.19.03,5.47-.73,7.61,1.44,16.14,1.14,24.08-.01,3.28-.09,5.47-.09,5.47Z"/>
  <circle class="cls-5" cx="151.86" cy="109.02" r="20.38"/>
  <circle class="cls-5" cx="151.71" cy="109.02" r="15.38"/>
  <g>
    <path class="cls-4" d="m128.51,121.69c-30.73,2.42-61.6,2.42-92.33,0v-50.21c30.73-2.42,61.6-2.42,92.33,0v50.21Z"/>
    <path class="cls-9" d="m128.51,121.69c-30.73,2.42-61.6,2.42-92.33,0v-50.21c30.73-2.42,61.6-2.42,92.33,0v50.21Z"/>
  </g>
  <g>
    <path class="cls-4" d="m121.67,116.16c-26.18,2.06-52.48,2.06-78.66,0v-39.15c26.18-2.06,52.48-2.06,78.66,0v39.15Z"/>
    <path class="cls-9" d="m121.67,116.16c-26.18,2.06-52.48,2.06-78.66,0v-39.15c26.18-2.06,52.48-2.06,78.66,0v39.15Z"/>
  </g>
  <g>
    <path class="cls-3" d="m138.75,127.54c-26.95,2.12-54.02,2.12-80.97,0v-43.16c26.95-2.12,54.02-2.12,80.97,0v43.16Z"/>
    <path class="cls-10" d="m138.75,127.54c-26.95,2.12-54.02,2.12-80.97,0v-43.16c26.95-2.12,54.02-2.12,80.97,0v43.16Z"/>
  </g>
  <g>
    <path class="cls-3" d="m132.75,122.79c-22.96,1.81-46.02,1.81-68.97,0v-33.65c22.96-1.81,46.02-1.81,68.97,0v33.65Z"/>
    <path class="cls-10" d="m132.75,122.79c-22.96,1.81-46.02,1.81-68.97,0v-33.65c22.96-1.81,46.02-1.81,68.97,0v33.65Z"/>
  </g>
  <path class="cls-8" d="m149.09,116.36c1.33.42,2.42.44,3.26.07s1.41-.99,1.69-1.87c.24-.77.19-1.49-.17-2.14s-1.02-1.31-2-1.97l-2.21-1.51c-.89-.61-1.63-1.26-2.22-1.94-.59-.68-.98-1.43-1.17-2.24-.19-.81-.13-1.7.17-2.67.53-1.69,1.58-2.83,3.14-3.41,1.56-.58,3.4-.53,5.53.14,1.18.37,2.2.83,3.05,1.37.85.54,1.48,1.1,1.88,1.67.4.57.51,1.12.35,1.63-.11.34-.29.62-.55.84s-.55.36-.88.45c-.38-.57-.97-1.14-1.75-1.72-.78-.58-1.71-1.03-2.75-1.36-1.16-.37-2.15-.41-2.97-.14-.82.27-1.35.82-1.61,1.63-.2.64-.13,1.24.21,1.78s.97,1.13,1.89,1.75l1.72,1.18c1.61,1.07,2.78,2.24,3.48,3.49.71,1.25.8,2.68.29,4.28-.55,1.74-1.64,2.94-3.26,3.6-1.63.67-3.62.63-5.97-.12-1.31-.41-2.42-.92-3.32-1.53-.9-.6-1.57-1.22-1.97-1.86-.41-.64-.53-1.22-.37-1.76.14-.43.38-.75.73-.95s.71-.34,1.08-.39c.38.64.95,1.32,1.7,2.04s1.75,1.28,3,1.67Z"/>
</svg>