<?xml version="1.0" encoding="UTF-8"?>
<svg id="couch" xmlns="http://www.w3.org/2000/svg" viewBox="0 0 200 200">
  <defs>
    <style>
      .cls-1 {
        fill: #8a5d3b;
        stroke: #603813;
      }

      .cls-1, .cls-2 {
        stroke-linecap: round;
        stroke-linejoin: round;
      }

      .cls-2 {
        fill: #f18dbc;
        stroke: #ed5c9b;
      }
    </style>
  </defs>
  <polygon class="cls-1" points="183.66 182.78 183.66 199.41 177.84 199.41 170.35 182.78 183.66 182.78"/>
  <polygon class="cls-1" points="16.31 182.78 16.31 199.41 22.13 199.41 29.62 182.78 16.31 182.78"/>
  <rect class="cls-2" x="24.98" y="156.16" width="75" height="15.2"/>
  <polygon class="cls-2" points="34.38 149.49 99.98 149.49 99.98 156.16 24.98 156.16 34.38 149.49"/>
  <polygon class="cls-2" points="99.98 104.82 19.83 104.82 34.38 149.49 99.98 149.49 165.59 149.49 180.14 104.82 99.98 104.82"/>
  <rect class="cls-2" x="99.98" y="156.16" width="75" height="15.2" transform="translate(274.97 327.52) rotate(180)"/>
  <polygon class="cls-2" points="165.59 149.49 99.98 149.49 99.98 156.16 174.99 156.16 165.59 149.49"/>
  <path class="cls-2" d="m99.98,171.36h75c-.08-4.54-.08-10.43,0-15.2.17-10,.16-8.66,1.1-17.68.42-3.99.8-6.06,1.91-9.39.44-1.33,1.6-4.81,2.8-6.74,1.43-2.3,2.93-4.5,4.48-6.31,1.63-1.9,3.78-4.8,6.62-6.05,1.53-.68,4.65-2.06,6.33-.68.99.81,1.09,2.26,1.13,2.94.1,1.54-.41,2.87-1.81,5.2-1.69,2.82-2.59,3.67-3.62,5.2-2.16,3.23-3.59,7.99-4.51,12.45-1.08,5.19-1.2,6.98-1.36,11.74-.16,4.78-.25,7.02-.23,13.11.02,4.65-.06,11.26-.55,19.42-.23,2.09-.78,3.41-3.62,3.41,0,0-83.67,0-83.67,0H16.31c-2.84,0-3.39-1.32-3.62-3.41-.49-8.16-.57-14.77-.55-19.42.03-6.09-.07-8.33-.23-13.11s-.29-6.55-1.36-11.74c-.93-4.46-2.35-9.23-4.51-12.45-1.02-1.53-1.93-2.38-3.62-5.2-1.39-2.33-1.91-3.66-1.81-5.2.04-.68.14-2.13,1.13-2.94,1.68-1.38,4.8,0,6.33.68,2.83,1.25,4.99,4.15,6.62,6.05s3.05,4.02,4.48,6.31c1.2,1.93,2.36,5.41,2.8,6.74,1.11,3.33,1.49,5.4,1.91,9.39.94,9.02.93,7.68,1.1,17.68.08,4.77.08,10.66,0,15.2h75Z"/>
  <path class="cls-2" d="m34.43,149.49c-.12-9.45-.11-8.18-.74-16.7-.28-3.77-.54-5.73-1.28-8.87-.3-1.26-1.07-4.54-1.88-6.37-.96-2.17-1.97-4.25-3-5.96-1.09-1.8-2.54-4.53-4.44-5.72-.77-.48-2.14-1.33-3.25-1.18l-16.72,4.05c1.66-.16,3.7.74,4.85,1.25,2.83,1.25,4.99,4.15,6.62,6.05s3.05,4.02,4.48,6.31c1.2,1.93,2.36,5.41,2.8,6.74,1.11,3.33,1.49,5.4,1.91,9.39.94,9.02.93,7.68,1.1,17.68l9.56-6.67Z"/>
  <path class="cls-2" d="m165.54,149.49c.12-9.45.11-8.18.74-16.7.28-3.77.54-5.73,1.28-8.87.3-1.26,1.07-4.54,1.88-6.37.96-2.17,1.97-4.25,3-5.96,1.09-1.8,2.54-4.53,4.44-5.72.77-.48,2.14-1.33,3.25-1.18l16.72,4.05c-1.66-.16-3.7.74-4.85,1.25-2.83,1.25-4.99,4.15-6.62,6.05s-3.05,4.02-4.48,6.31c-1.2,1.93-2.36,5.41-2.8,6.74-1.11,3.33-1.49,5.4-1.91,9.39-.94,9.02-.93,7.68-1.1,17.68l-9.56-6.67Z"/>
</svg>