<?xml version="1.0" encoding="UTF-8"?>
<svg id="couch" xmlns="http://www.w3.org/2000/svg" viewBox="0 0 250 250">
  <defs>
    <style>
      .cls-1 {
        fill: #bbbdbf;
      }
    </style>
  </defs>
  <path class="cls-1" d="m236.58,93.8c-.05-.82-.16-2.56-1.27-3.54-.5-.44-1.11-.64-1.78-.69.08,0,.16,0,.24,0l-18.76-4.88c-.41-.06-.85.02-1.29.16H36.39c-.44-.14-.88-.22-1.29-.16l-18.76,4.88c.08,0,.16,0,.24,0-.66.05-1.28.25-1.78.69-1.11.98-1.22,2.72-1.27,3.54-.11,1.85.46,3.46,2.03,6.26,1.9,3.39,2.91,4.42,4.06,6.26,2.43,3.88,4.03,9.62,5.07,14.99,1.21,6.24,1.35,8.4,1.53,14.12.18,5.75.28,8.45.25,15.78-.02,5.59.07,13.55.62,23.37.26,2.52.88,4.11,4.07,4.11h4.94v16.71h12.26l10.68-16.71h66.02s66.13,0,66.13,0l10.68,16.71h12.26v-16.71h4.83c3.19,0,3.8-1.59,4.07-4.11.55-9.82.64-17.78.62-23.37-.03-7.33.07-10.03.25-15.78.18-5.73.32-7.88,1.53-14.12,1.04-5.37,2.64-11.11,5.07-14.99,1.15-1.84,2.16-2.86,4.06-6.26,1.57-2.8,2.14-4.41,2.03-6.26Z"/>
</svg>